%FSLAX45Y45*%
G04 Gerber Fmt 4.5, Leading zero omitted, Abs format (unit mm)*
G04 Created by KiCad (PCBNEW 5.1.2-f72e74a~84~ubuntu18.04.1) date 2019-07-07 13:50:05*
%MOMM*%
%LPD*%
G04 APERTURE LIST*
%ADD10C,0.050000*%
%ADD11C,0.200000*%
%ADD12C,0.300000*%
G04 APERTURE END LIST*
D10*
X15214600Y-6451600D02*
X15443200Y-6223000D01*
X14782800Y-6223000D02*
X15011400Y-6451600D01*
X10668000Y-10287000D02*
X11684000Y-9271000D01*
X10668000Y-18161000D02*
X10668000Y-10287000D01*
X19558000Y-18161000D02*
X10668000Y-18161000D01*
X19558000Y-10287000D02*
X19558000Y-18161000D01*
X18542000Y-9271000D02*
X19558000Y-10287000D01*
X15214600Y-6985000D02*
X15214600Y-6451600D01*
X15011400Y-6985000D02*
X15214600Y-6985000D01*
X15443200Y-6223000D02*
X18542000Y-6223000D01*
X15011400Y-6451600D02*
X15011400Y-6985000D01*
X11684000Y-9271000D02*
X11684000Y-6223000D01*
X18542000Y-6223000D02*
X18542000Y-9271000D01*
X11684000Y-6223000D02*
X14782800Y-6223000D01*
D11*
X18150000Y-9641000D02*
X18680000Y-10171000D01*
X18680000Y-9641000D02*
X18150000Y-10171000D01*
X11546000Y-9641000D02*
X12076000Y-10171000D01*
X12076000Y-9641000D02*
X11546000Y-10171000D01*
X18150000Y-17388000D02*
X18680000Y-17918000D01*
X18680000Y-17388000D02*
X18150000Y-17918000D01*
X11546000Y-17388000D02*
X12076000Y-17918000D01*
X12076000Y-17388000D02*
X11546000Y-17918000D01*
D12*
X10951928Y-18629214D02*
X10951928Y-18329214D01*
X11023357Y-18329214D01*
X11066214Y-18343500D01*
X11094786Y-18372072D01*
X11109071Y-18400643D01*
X11123357Y-18457786D01*
X11123357Y-18500643D01*
X11109071Y-18557786D01*
X11094786Y-18586357D01*
X11066214Y-18614929D01*
X11023357Y-18629214D01*
X10951928Y-18629214D01*
X11251928Y-18629214D02*
X11251928Y-18429214D01*
X11251928Y-18486357D02*
X11266214Y-18457786D01*
X11280500Y-18443500D01*
X11309071Y-18429214D01*
X11337643Y-18429214D01*
X11437643Y-18629214D02*
X11437643Y-18429214D01*
X11437643Y-18329214D02*
X11423357Y-18343500D01*
X11437643Y-18357786D01*
X11451928Y-18343500D01*
X11437643Y-18329214D01*
X11437643Y-18357786D01*
X11623357Y-18629214D02*
X11594786Y-18614929D01*
X11580500Y-18586357D01*
X11580500Y-18329214D01*
X11780500Y-18629214D02*
X11751928Y-18614929D01*
X11737643Y-18586357D01*
X11737643Y-18329214D01*
X12123357Y-18629214D02*
X12123357Y-18329214D01*
X12223357Y-18543500D01*
X12323357Y-18329214D01*
X12323357Y-18629214D01*
X12594786Y-18629214D02*
X12594786Y-18472072D01*
X12580500Y-18443500D01*
X12551928Y-18429214D01*
X12494786Y-18429214D01*
X12466214Y-18443500D01*
X12594786Y-18614929D02*
X12566214Y-18629214D01*
X12494786Y-18629214D01*
X12466214Y-18614929D01*
X12451928Y-18586357D01*
X12451928Y-18557786D01*
X12466214Y-18529214D01*
X12494786Y-18514929D01*
X12566214Y-18514929D01*
X12594786Y-18500643D01*
X12737643Y-18429214D02*
X12737643Y-18729214D01*
X12737643Y-18443500D02*
X12766214Y-18429214D01*
X12823357Y-18429214D01*
X12851928Y-18443500D01*
X12866214Y-18457786D01*
X12880500Y-18486357D01*
X12880500Y-18572072D01*
X12866214Y-18600643D01*
X12851928Y-18614929D01*
X12823357Y-18629214D01*
X12766214Y-18629214D01*
X12737643Y-18614929D01*
X13009071Y-18600643D02*
X13023357Y-18614929D01*
X13009071Y-18629214D01*
X12994786Y-18614929D01*
X13009071Y-18600643D01*
X13009071Y-18629214D01*
X13009071Y-18443500D02*
X13023357Y-18457786D01*
X13009071Y-18472072D01*
X12994786Y-18457786D01*
X13009071Y-18443500D01*
X13009071Y-18472072D01*
X10135500Y-18858500D02*
X10665500Y-19388500D01*
X10665500Y-18858500D02*
X10135500Y-19388500D01*
X11094786Y-18959214D02*
X10951928Y-18959214D01*
X10937643Y-19102072D01*
X10951928Y-19087786D01*
X10980500Y-19073500D01*
X11051928Y-19073500D01*
X11080500Y-19087786D01*
X11094786Y-19102072D01*
X11109071Y-19130643D01*
X11109071Y-19202072D01*
X11094786Y-19230643D01*
X11080500Y-19244929D01*
X11051928Y-19259214D01*
X10980500Y-19259214D01*
X10951928Y-19244929D01*
X10937643Y-19230643D01*
X11237643Y-19230643D02*
X11251928Y-19244929D01*
X11237643Y-19259214D01*
X11223357Y-19244929D01*
X11237643Y-19230643D01*
X11237643Y-19259214D01*
X11351928Y-18959214D02*
X11537643Y-18959214D01*
X11437643Y-19073500D01*
X11480500Y-19073500D01*
X11509071Y-19087786D01*
X11523357Y-19102072D01*
X11537643Y-19130643D01*
X11537643Y-19202072D01*
X11523357Y-19230643D01*
X11509071Y-19244929D01*
X11480500Y-19259214D01*
X11394786Y-19259214D01*
X11366214Y-19244929D01*
X11351928Y-19230643D01*
X11723357Y-18959214D02*
X11751928Y-18959214D01*
X11780500Y-18973500D01*
X11794786Y-18987786D01*
X11809071Y-19016357D01*
X11823357Y-19073500D01*
X11823357Y-19144929D01*
X11809071Y-19202072D01*
X11794786Y-19230643D01*
X11780500Y-19244929D01*
X11751928Y-19259214D01*
X11723357Y-19259214D01*
X11694786Y-19244929D01*
X11680500Y-19230643D01*
X11666214Y-19202072D01*
X11651928Y-19144929D01*
X11651928Y-19073500D01*
X11666214Y-19016357D01*
X11680500Y-18987786D01*
X11694786Y-18973500D01*
X11723357Y-18959214D01*
X11951928Y-19259214D02*
X11951928Y-19059214D01*
X11951928Y-19087786D02*
X11966214Y-19073500D01*
X11994786Y-19059214D01*
X12037643Y-19059214D01*
X12066214Y-19073500D01*
X12080500Y-19102072D01*
X12080500Y-19259214D01*
X12080500Y-19102072D02*
X12094786Y-19073500D01*
X12123357Y-19059214D01*
X12166214Y-19059214D01*
X12194786Y-19073500D01*
X12209071Y-19102072D01*
X12209071Y-19259214D01*
X12351928Y-19259214D02*
X12351928Y-19059214D01*
X12351928Y-19087786D02*
X12366214Y-19073500D01*
X12394786Y-19059214D01*
X12437643Y-19059214D01*
X12466214Y-19073500D01*
X12480500Y-19102072D01*
X12480500Y-19259214D01*
X12480500Y-19102072D02*
X12494786Y-19073500D01*
X12523357Y-19059214D01*
X12566214Y-19059214D01*
X12594786Y-19073500D01*
X12609071Y-19102072D01*
X12609071Y-19259214D01*
X13194786Y-18944929D02*
X12937643Y-19330643D01*
X13580500Y-18959214D02*
X13609071Y-18959214D01*
X13637643Y-18973500D01*
X13651928Y-18987786D01*
X13666214Y-19016357D01*
X13680500Y-19073500D01*
X13680500Y-19144929D01*
X13666214Y-19202072D01*
X13651928Y-19230643D01*
X13637643Y-19244929D01*
X13609071Y-19259214D01*
X13580500Y-19259214D01*
X13551928Y-19244929D01*
X13537643Y-19230643D01*
X13523357Y-19202072D01*
X13509071Y-19144929D01*
X13509071Y-19073500D01*
X13523357Y-19016357D01*
X13537643Y-18987786D01*
X13551928Y-18973500D01*
X13580500Y-18959214D01*
X13809071Y-19230643D02*
X13823357Y-19244929D01*
X13809071Y-19259214D01*
X13794786Y-19244929D01*
X13809071Y-19230643D01*
X13809071Y-19259214D01*
X13937643Y-18987786D02*
X13951928Y-18973500D01*
X13980500Y-18959214D01*
X14051928Y-18959214D01*
X14080500Y-18973500D01*
X14094786Y-18987786D01*
X14109071Y-19016357D01*
X14109071Y-19044929D01*
X14094786Y-19087786D01*
X13923357Y-19259214D01*
X14109071Y-19259214D01*
X14294786Y-18959214D02*
X14323357Y-18959214D01*
X14351928Y-18973500D01*
X14366214Y-18987786D01*
X14380500Y-19016357D01*
X14394786Y-19073500D01*
X14394786Y-19144929D01*
X14380500Y-19202072D01*
X14366214Y-19230643D01*
X14351928Y-19244929D01*
X14323357Y-19259214D01*
X14294786Y-19259214D01*
X14266214Y-19244929D01*
X14251928Y-19230643D01*
X14237643Y-19202072D01*
X14223357Y-19144929D01*
X14223357Y-19073500D01*
X14237643Y-19016357D01*
X14251928Y-18987786D01*
X14266214Y-18973500D01*
X14294786Y-18959214D01*
X14537643Y-19259214D02*
X14594786Y-19259214D01*
X14623357Y-19244929D01*
X14637643Y-19230643D01*
X14666214Y-19187786D01*
X14680500Y-19130643D01*
X14680500Y-19016357D01*
X14666214Y-18987786D01*
X14651928Y-18973500D01*
X14623357Y-18959214D01*
X14566214Y-18959214D01*
X14537643Y-18973500D01*
X14523357Y-18987786D01*
X14509071Y-19016357D01*
X14509071Y-19087786D01*
X14523357Y-19116357D01*
X14537643Y-19130643D01*
X14566214Y-19144929D01*
X14623357Y-19144929D01*
X14651928Y-19130643D01*
X14666214Y-19116357D01*
X14680500Y-19087786D01*
X14794786Y-18959214D02*
X14794786Y-19016357D01*
X14909071Y-18959214D02*
X14909071Y-19016357D01*
X15351928Y-19373500D02*
X15337643Y-19359214D01*
X15309071Y-19316357D01*
X15294786Y-19287786D01*
X15280500Y-19244929D01*
X15266214Y-19173500D01*
X15266214Y-19116357D01*
X15280500Y-19044929D01*
X15294786Y-19002072D01*
X15309071Y-18973500D01*
X15337643Y-18930643D01*
X15351928Y-18916357D01*
X15594786Y-19059214D02*
X15594786Y-19259214D01*
X15523357Y-18944929D02*
X15451928Y-19159214D01*
X15637643Y-19159214D01*
X15980500Y-19259214D02*
X15980500Y-18959214D01*
X16109071Y-19259214D02*
X16109071Y-19102072D01*
X16094786Y-19073500D01*
X16066214Y-19059214D01*
X16023357Y-19059214D01*
X15994786Y-19073500D01*
X15980500Y-19087786D01*
X16294786Y-19259214D02*
X16266214Y-19244929D01*
X16251928Y-19230643D01*
X16237643Y-19202072D01*
X16237643Y-19116357D01*
X16251928Y-19087786D01*
X16266214Y-19073500D01*
X16294786Y-19059214D01*
X16337643Y-19059214D01*
X16366214Y-19073500D01*
X16380500Y-19087786D01*
X16394786Y-19116357D01*
X16394786Y-19202072D01*
X16380500Y-19230643D01*
X16366214Y-19244929D01*
X16337643Y-19259214D01*
X16294786Y-19259214D01*
X16566214Y-19259214D02*
X16537643Y-19244929D01*
X16523357Y-19216357D01*
X16523357Y-18959214D01*
X16794786Y-19244929D02*
X16766214Y-19259214D01*
X16709071Y-19259214D01*
X16680500Y-19244929D01*
X16666214Y-19216357D01*
X16666214Y-19102072D01*
X16680500Y-19073500D01*
X16709071Y-19059214D01*
X16766214Y-19059214D01*
X16794786Y-19073500D01*
X16809071Y-19102072D01*
X16809071Y-19130643D01*
X16666214Y-19159214D01*
X16923357Y-19244929D02*
X16951928Y-19259214D01*
X17009071Y-19259214D01*
X17037643Y-19244929D01*
X17051928Y-19216357D01*
X17051928Y-19202072D01*
X17037643Y-19173500D01*
X17009071Y-19159214D01*
X16966214Y-19159214D01*
X16937643Y-19144929D01*
X16923357Y-19116357D01*
X16923357Y-19102072D01*
X16937643Y-19073500D01*
X16966214Y-19059214D01*
X17009071Y-19059214D01*
X17037643Y-19073500D01*
X17151928Y-19373500D02*
X17166214Y-19359214D01*
X17194786Y-19316357D01*
X17209071Y-19287786D01*
X17223357Y-19244929D01*
X17237643Y-19173500D01*
X17237643Y-19116357D01*
X17223357Y-19044929D01*
X17209071Y-19002072D01*
X17194786Y-18973500D01*
X17166214Y-18930643D01*
X17151928Y-18916357D01*
X17694786Y-19373500D02*
X17680500Y-19359214D01*
X17651928Y-19316357D01*
X17637643Y-19287786D01*
X17623357Y-19244929D01*
X17609071Y-19173500D01*
X17609071Y-19116357D01*
X17623357Y-19044929D01*
X17637643Y-19002072D01*
X17651928Y-18973500D01*
X17680500Y-18930643D01*
X17694786Y-18916357D01*
X17809071Y-19059214D02*
X17809071Y-19259214D01*
X17809071Y-19087786D02*
X17823357Y-19073500D01*
X17851928Y-19059214D01*
X17894786Y-19059214D01*
X17923357Y-19073500D01*
X17937643Y-19102072D01*
X17937643Y-19259214D01*
X18123357Y-19259214D02*
X18094786Y-19244929D01*
X18080500Y-19230643D01*
X18066214Y-19202072D01*
X18066214Y-19116357D01*
X18080500Y-19087786D01*
X18094786Y-19073500D01*
X18123357Y-19059214D01*
X18166214Y-19059214D01*
X18194786Y-19073500D01*
X18209071Y-19087786D01*
X18223357Y-19116357D01*
X18223357Y-19202072D01*
X18209071Y-19230643D01*
X18194786Y-19244929D01*
X18166214Y-19259214D01*
X18123357Y-19259214D01*
X18309071Y-19059214D02*
X18423357Y-19059214D01*
X18351928Y-18959214D02*
X18351928Y-19216357D01*
X18366214Y-19244929D01*
X18394786Y-19259214D01*
X18423357Y-19259214D01*
X18751928Y-19059214D02*
X18751928Y-19359214D01*
X18751928Y-19073500D02*
X18780500Y-19059214D01*
X18837643Y-19059214D01*
X18866214Y-19073500D01*
X18880500Y-19087786D01*
X18894786Y-19116357D01*
X18894786Y-19202072D01*
X18880500Y-19230643D01*
X18866214Y-19244929D01*
X18837643Y-19259214D01*
X18780500Y-19259214D01*
X18751928Y-19244929D01*
X19066214Y-19259214D02*
X19037643Y-19244929D01*
X19023357Y-19216357D01*
X19023357Y-18959214D01*
X19309071Y-19259214D02*
X19309071Y-19102072D01*
X19294786Y-19073500D01*
X19266214Y-19059214D01*
X19209071Y-19059214D01*
X19180500Y-19073500D01*
X19309071Y-19244929D02*
X19280500Y-19259214D01*
X19209071Y-19259214D01*
X19180500Y-19244929D01*
X19166214Y-19216357D01*
X19166214Y-19187786D01*
X19180500Y-19159214D01*
X19209071Y-19144929D01*
X19280500Y-19144929D01*
X19309071Y-19130643D01*
X19409071Y-19059214D02*
X19523357Y-19059214D01*
X19451928Y-18959214D02*
X19451928Y-19216357D01*
X19466214Y-19244929D01*
X19494786Y-19259214D01*
X19523357Y-19259214D01*
X19737643Y-19244929D02*
X19709071Y-19259214D01*
X19651928Y-19259214D01*
X19623357Y-19244929D01*
X19609071Y-19216357D01*
X19609071Y-19102072D01*
X19623357Y-19073500D01*
X19651928Y-19059214D01*
X19709071Y-19059214D01*
X19737643Y-19073500D01*
X19751928Y-19102072D01*
X19751928Y-19130643D01*
X19609071Y-19159214D01*
X20009071Y-19259214D02*
X20009071Y-18959214D01*
X20009071Y-19244929D02*
X19980500Y-19259214D01*
X19923357Y-19259214D01*
X19894786Y-19244929D01*
X19880500Y-19230643D01*
X19866214Y-19202072D01*
X19866214Y-19116357D01*
X19880500Y-19087786D01*
X19894786Y-19073500D01*
X19923357Y-19059214D01*
X19980500Y-19059214D01*
X20009071Y-19073500D01*
X20123357Y-19373500D02*
X20137643Y-19359214D01*
X20166214Y-19316357D01*
X20180500Y-19287786D01*
X20194786Y-19244929D01*
X20209071Y-19173500D01*
X20209071Y-19116357D01*
X20194786Y-19044929D01*
X20180500Y-19002072D01*
X20166214Y-18973500D01*
X20137643Y-18930643D01*
X20123357Y-18916357D01*
M02*
