G04 #@! TF.GenerationSoftware,KiCad,Pcbnew,5.1.2-f72e74a~84~ubuntu18.04.1*
G04 #@! TF.CreationDate,2019-07-07T14:56:00+03:00*
G04 #@! TF.ProjectId,fart,66617274-2e6b-4696-9361-645f70636258,rev?*
G04 #@! TF.SameCoordinates,Original*
G04 #@! TF.FileFunction,Copper,L1,Top*
G04 #@! TF.FilePolarity,Positive*
%FSLAX46Y46*%
G04 Gerber Fmt 4.6, Leading zero omitted, Abs format (unit mm)*
G04 Created by KiCad (PCBNEW 5.1.2-f72e74a~84~ubuntu18.04.1) date 2019-07-07 14:56:00*
%MOMM*%
%LPD*%
G04 APERTURE LIST*
%ADD10C,0.300000*%
%ADD11C,1.600000*%
%ADD12R,1.600000X1.600000*%
%ADD13R,1.600000X2.400000*%
%ADD14O,1.600000X2.400000*%
%ADD15C,0.800000*%
%ADD16C,0.500000*%
%ADD17C,1.000000*%
G04 APERTURE END LIST*
D10*
X111081428Y-122947142D02*
X111010000Y-122875714D01*
X110938571Y-122732857D01*
X110938571Y-122375714D01*
X111010000Y-122232857D01*
X111081428Y-122161428D01*
X111224285Y-122090000D01*
X111367142Y-122090000D01*
X111581428Y-122161428D01*
X112438571Y-123018571D01*
X112438571Y-122090000D01*
X110938571Y-121161428D02*
X110938571Y-121018571D01*
X111010000Y-120875714D01*
X111081428Y-120804285D01*
X111224285Y-120732857D01*
X111510000Y-120661428D01*
X111867142Y-120661428D01*
X112152857Y-120732857D01*
X112295714Y-120804285D01*
X112367142Y-120875714D01*
X112438571Y-121018571D01*
X112438571Y-121161428D01*
X112367142Y-121304285D01*
X112295714Y-121375714D01*
X112152857Y-121447142D01*
X111867142Y-121518571D01*
X111510000Y-121518571D01*
X111224285Y-121447142D01*
X111081428Y-121375714D01*
X111010000Y-121304285D01*
X110938571Y-121161428D01*
X112438571Y-119232857D02*
X112438571Y-120090000D01*
X112438571Y-119661428D02*
X110938571Y-119661428D01*
X111152857Y-119804285D01*
X111295714Y-119947142D01*
X111367142Y-120090000D01*
X112438571Y-118518571D02*
X112438571Y-118232857D01*
X112367142Y-118090000D01*
X112295714Y-118018571D01*
X112081428Y-117875714D01*
X111795714Y-117804285D01*
X111224285Y-117804285D01*
X111081428Y-117875714D01*
X111010000Y-117947142D01*
X110938571Y-118090000D01*
X110938571Y-118375714D01*
X111010000Y-118518571D01*
X111081428Y-118590000D01*
X111224285Y-118661428D01*
X111581428Y-118661428D01*
X111724285Y-118590000D01*
X111795714Y-118518571D01*
X111867142Y-118375714D01*
X111867142Y-118090000D01*
X111795714Y-117947142D01*
X111724285Y-117875714D01*
X111581428Y-117804285D01*
X111438571Y-116232857D02*
X111438571Y-115661428D01*
X110938571Y-116018571D02*
X112224285Y-116018571D01*
X112367142Y-115947142D01*
X112438571Y-115804285D01*
X112438571Y-115661428D01*
X111438571Y-115161428D02*
X112438571Y-115161428D01*
X111581428Y-115161428D02*
X111510000Y-115090000D01*
X111438571Y-114947142D01*
X111438571Y-114732857D01*
X111510000Y-114590000D01*
X111652857Y-114518571D01*
X112438571Y-114518571D01*
X111438571Y-114018571D02*
X111438571Y-113447142D01*
X110938571Y-113804285D02*
X112224285Y-113804285D01*
X112367142Y-113732857D01*
X112438571Y-113590000D01*
X112438571Y-113447142D01*
X111081428Y-113018571D02*
X111010000Y-112947142D01*
X110938571Y-112804285D01*
X110938571Y-112447142D01*
X111010000Y-112304285D01*
X111081428Y-112232857D01*
X111224285Y-112161428D01*
X111367142Y-112161428D01*
X111581428Y-112232857D01*
X112438571Y-113090000D01*
X112438571Y-112161428D01*
X110938571Y-111661428D02*
X110938571Y-110732857D01*
X111510000Y-111232857D01*
X111510000Y-111018571D01*
X111581428Y-110875714D01*
X111652857Y-110804285D01*
X111795714Y-110732857D01*
X112152857Y-110732857D01*
X112295714Y-110804285D01*
X112367142Y-110875714D01*
X112438571Y-111018571D01*
X112438571Y-111447142D01*
X112367142Y-111590000D01*
X112295714Y-111661428D01*
D11*
X187960000Y-109220000D03*
X190500000Y-111760000D03*
X185420000Y-111760000D03*
X182880000Y-111760000D03*
X185420000Y-109220000D03*
X190500000Y-109220000D03*
X182880000Y-109220000D03*
X187960000Y-111760000D03*
X190500000Y-132080000D03*
X182880000Y-124460000D03*
X182880000Y-116840000D03*
X185420000Y-119380000D03*
X182880000Y-114300000D03*
X187960000Y-119380000D03*
X187960000Y-114300000D03*
X190500000Y-127000000D03*
X190500000Y-116840000D03*
X185420000Y-127000000D03*
X190500000Y-129540000D03*
X182880000Y-134620000D03*
X185420000Y-129540000D03*
X182880000Y-129540000D03*
X190500000Y-124460000D03*
X185420000Y-132080000D03*
X187960000Y-129540000D03*
X185420000Y-116840000D03*
X182880000Y-132080000D03*
X185420000Y-114300000D03*
X185420000Y-121920000D03*
X187960000Y-116840000D03*
X185420000Y-124460000D03*
X190500000Y-119380000D03*
X187960000Y-132080000D03*
X190500000Y-114300000D03*
X185420000Y-134620000D03*
X182880000Y-127000000D03*
X182880000Y-119380000D03*
X187960000Y-134620000D03*
X182880000Y-121920000D03*
X190500000Y-134620000D03*
X187960000Y-124460000D03*
X190500000Y-121920000D03*
X187960000Y-127000000D03*
X187960000Y-121920000D03*
X132080000Y-175260000D03*
X147320000Y-175260000D03*
X162560000Y-175260000D03*
X149860000Y-175260000D03*
X172720000Y-175260000D03*
X139700000Y-175260000D03*
X175260000Y-175260000D03*
X129540000Y-175260000D03*
X144780000Y-175260000D03*
X134620000Y-175260000D03*
X170180000Y-175260000D03*
X152400000Y-175260000D03*
X177800000Y-175260000D03*
X167640000Y-175260000D03*
X127000000Y-175260000D03*
X160020000Y-175260000D03*
X165100000Y-175260000D03*
X157480000Y-175260000D03*
X154940000Y-175260000D03*
X137160000Y-175260000D03*
X142240000Y-175260000D03*
X124460000Y-175260000D03*
X180340000Y-170180000D03*
X175260000Y-172720000D03*
X149860000Y-172720000D03*
X147320000Y-172720000D03*
X144780000Y-172720000D03*
X177800000Y-172720000D03*
X167640000Y-172720000D03*
X165100000Y-172720000D03*
X162560000Y-172720000D03*
X134620000Y-172720000D03*
X170180000Y-172720000D03*
X157480000Y-172720000D03*
X127000000Y-172720000D03*
X152400000Y-172720000D03*
X139700000Y-172720000D03*
X160020000Y-172720000D03*
X124460000Y-172720000D03*
X129540000Y-172720000D03*
X154940000Y-172720000D03*
X172720000Y-172720000D03*
X142240000Y-172720000D03*
X132080000Y-172720000D03*
X137160000Y-172720000D03*
X139700000Y-170180000D03*
X124460000Y-170180000D03*
X142240000Y-170180000D03*
X147320000Y-170180000D03*
X127000000Y-170180000D03*
X177800000Y-170180000D03*
X175260000Y-170180000D03*
X167640000Y-170180000D03*
X152400000Y-170180000D03*
X157480000Y-170180000D03*
X162560000Y-170180000D03*
X165100000Y-170180000D03*
X172720000Y-170180000D03*
X160020000Y-170180000D03*
X170180000Y-170180000D03*
X129540000Y-170180000D03*
X149860000Y-170180000D03*
X132080000Y-170180000D03*
X121920000Y-170180000D03*
X134620000Y-170180000D03*
X154940000Y-170180000D03*
X137160000Y-170180000D03*
X144780000Y-170180000D03*
X182880000Y-137160000D03*
X190500000Y-137160000D03*
X185420000Y-137160000D03*
X187960000Y-137160000D03*
X180340000Y-137160000D03*
X185420000Y-139700000D03*
X187960000Y-139700000D03*
X180340000Y-139700000D03*
X190500000Y-139700000D03*
X182880000Y-139700000D03*
X180340000Y-142240000D03*
X185420000Y-142240000D03*
X182880000Y-142240000D03*
X190500000Y-142240000D03*
X187960000Y-142240000D03*
X160020000Y-144780000D03*
X182880000Y-144780000D03*
X167640000Y-144780000D03*
X162560000Y-144780000D03*
X177800000Y-144780000D03*
X190500000Y-144780000D03*
X152400000Y-144780000D03*
X149860000Y-144780000D03*
X157480000Y-144780000D03*
X185420000Y-144780000D03*
X154940000Y-144780000D03*
X170180000Y-144780000D03*
X144780000Y-144780000D03*
X165100000Y-144780000D03*
X180340000Y-144780000D03*
X147320000Y-144780000D03*
X187960000Y-144780000D03*
X172720000Y-144780000D03*
X175260000Y-144780000D03*
X175260000Y-147320000D03*
X149860000Y-147320000D03*
X144780000Y-147320000D03*
X167640000Y-147320000D03*
X190500000Y-147320000D03*
X154940000Y-147320000D03*
X185420000Y-147320000D03*
X172720000Y-147320000D03*
X157480000Y-147320000D03*
X177800000Y-147320000D03*
X152400000Y-147320000D03*
X162560000Y-147320000D03*
X165100000Y-147320000D03*
X170180000Y-147320000D03*
X160020000Y-147320000D03*
X182880000Y-147320000D03*
X147320000Y-147320000D03*
X180340000Y-147320000D03*
X187960000Y-147320000D03*
X167640000Y-152400000D03*
X177800000Y-157480000D03*
X180340000Y-167640000D03*
X162560000Y-160020000D03*
X177800000Y-160020000D03*
X165100000Y-154940000D03*
X187960000Y-154940000D03*
X182880000Y-157480000D03*
X185420000Y-160020000D03*
X167640000Y-160020000D03*
X154940000Y-157480000D03*
X165100000Y-167640000D03*
X157480000Y-154940000D03*
X177800000Y-162560000D03*
X190500000Y-160020000D03*
X165100000Y-157480000D03*
X177800000Y-154940000D03*
X190500000Y-162560000D03*
X182880000Y-167640000D03*
X157480000Y-149860000D03*
X162560000Y-157480000D03*
X160020000Y-162560000D03*
X154940000Y-154940000D03*
X152400000Y-162560000D03*
X154940000Y-160020000D03*
X152400000Y-160020000D03*
X177800000Y-149860000D03*
X187960000Y-167640000D03*
X157480000Y-152400000D03*
X177800000Y-152400000D03*
X165100000Y-162560000D03*
X154940000Y-165100000D03*
X160020000Y-165100000D03*
X175260000Y-152400000D03*
X160020000Y-154940000D03*
X172720000Y-154940000D03*
X187960000Y-152400000D03*
X190500000Y-154940000D03*
X175260000Y-149860000D03*
X190500000Y-149860000D03*
X157480000Y-167640000D03*
X162560000Y-152400000D03*
X172720000Y-149860000D03*
X162560000Y-165100000D03*
X170180000Y-162560000D03*
X172720000Y-152400000D03*
X185420000Y-152400000D03*
X154940000Y-149860000D03*
X160020000Y-149860000D03*
X167640000Y-165100000D03*
X185420000Y-157480000D03*
X167640000Y-154940000D03*
X172720000Y-160020000D03*
X152400000Y-154940000D03*
X167640000Y-157480000D03*
X185420000Y-149860000D03*
X187960000Y-165100000D03*
X177800000Y-165100000D03*
X172720000Y-162560000D03*
X170180000Y-165100000D03*
X167640000Y-167640000D03*
X170180000Y-157480000D03*
X152400000Y-167640000D03*
X175260000Y-165100000D03*
X182880000Y-162560000D03*
X152400000Y-157480000D03*
X154940000Y-167640000D03*
X175260000Y-162560000D03*
X152400000Y-165100000D03*
X154940000Y-162560000D03*
X190500000Y-165100000D03*
X152400000Y-149860000D03*
X170180000Y-167640000D03*
X182880000Y-160020000D03*
X190500000Y-167640000D03*
X160020000Y-157480000D03*
X175260000Y-154940000D03*
X180340000Y-160020000D03*
X165100000Y-165100000D03*
X185420000Y-154940000D03*
X187960000Y-162560000D03*
X180340000Y-165100000D03*
X180340000Y-152400000D03*
X172720000Y-167640000D03*
X180340000Y-157480000D03*
X170180000Y-149860000D03*
X172720000Y-157480000D03*
X162560000Y-167640000D03*
X182880000Y-154940000D03*
X182880000Y-149860000D03*
X190500000Y-152400000D03*
X175260000Y-167640000D03*
X180340000Y-162560000D03*
X160020000Y-167640000D03*
X187960000Y-149860000D03*
X157480000Y-160020000D03*
X175260000Y-157480000D03*
X182880000Y-152400000D03*
X187960000Y-160020000D03*
X170180000Y-160020000D03*
X165100000Y-149860000D03*
X167640000Y-162560000D03*
X162560000Y-149860000D03*
X154940000Y-152400000D03*
X160020000Y-152400000D03*
X152400000Y-152400000D03*
X170180000Y-152400000D03*
X165100000Y-152400000D03*
X157480000Y-162560000D03*
X165100000Y-160020000D03*
X162560000Y-154940000D03*
X177800000Y-167640000D03*
X157480000Y-157480000D03*
X170180000Y-154940000D03*
X182880000Y-165100000D03*
X180340000Y-149860000D03*
X190500000Y-157480000D03*
X187960000Y-157480000D03*
X157480000Y-165100000D03*
X185420000Y-162560000D03*
X160020000Y-160020000D03*
X185420000Y-167640000D03*
X175260000Y-160020000D03*
X172720000Y-165100000D03*
X167640000Y-149860000D03*
X180340000Y-154940000D03*
X162560000Y-162560000D03*
X185420000Y-165100000D03*
X147320000Y-152400000D03*
X142240000Y-160020000D03*
X144780000Y-154940000D03*
X147320000Y-160020000D03*
X134620000Y-157480000D03*
X144780000Y-167640000D03*
X137160000Y-154940000D03*
X144780000Y-157480000D03*
X137160000Y-149860000D03*
X142240000Y-157480000D03*
X139700000Y-162560000D03*
X134620000Y-154940000D03*
X132080000Y-162560000D03*
X134620000Y-160020000D03*
X132080000Y-160020000D03*
X137160000Y-152400000D03*
X144780000Y-162560000D03*
X134620000Y-165100000D03*
X139700000Y-165100000D03*
X139700000Y-154940000D03*
X137160000Y-167640000D03*
X142240000Y-152400000D03*
X142240000Y-165100000D03*
X149860000Y-162560000D03*
X134620000Y-149860000D03*
X139700000Y-149860000D03*
X147320000Y-165100000D03*
X147320000Y-154940000D03*
X132080000Y-154940000D03*
X147320000Y-157480000D03*
X149860000Y-165100000D03*
X147320000Y-167640000D03*
X149860000Y-157480000D03*
X132080000Y-167640000D03*
X132080000Y-157480000D03*
X134620000Y-167640000D03*
X132080000Y-165100000D03*
X134620000Y-162560000D03*
X132080000Y-149860000D03*
X149860000Y-167640000D03*
X139700000Y-157480000D03*
X144780000Y-165100000D03*
X149860000Y-149860000D03*
X142240000Y-167640000D03*
X139700000Y-167640000D03*
X137160000Y-160020000D03*
X149860000Y-160020000D03*
X144780000Y-149860000D03*
X147320000Y-162560000D03*
X142240000Y-149860000D03*
X134620000Y-152400000D03*
X139700000Y-152400000D03*
X132080000Y-152400000D03*
X149860000Y-152400000D03*
X144780000Y-152400000D03*
X137160000Y-162560000D03*
X144780000Y-160020000D03*
X142240000Y-154940000D03*
X137160000Y-157480000D03*
X149860000Y-154940000D03*
X137160000Y-165100000D03*
X139700000Y-160020000D03*
X147320000Y-149860000D03*
X142240000Y-162560000D03*
X127000000Y-162560000D03*
X124460000Y-165100000D03*
X114300000Y-167640000D03*
X116840000Y-165100000D03*
X124460000Y-167640000D03*
X116840000Y-160020000D03*
X121920000Y-167640000D03*
X114300000Y-165100000D03*
X116840000Y-162560000D03*
X119380000Y-165100000D03*
X121920000Y-162560000D03*
X114300000Y-160020000D03*
X119380000Y-160020000D03*
X127000000Y-165100000D03*
X111760000Y-165100000D03*
X127000000Y-167640000D03*
X129540000Y-167640000D03*
X111760000Y-167640000D03*
X111760000Y-160020000D03*
X119380000Y-167640000D03*
X129540000Y-160020000D03*
X124460000Y-160020000D03*
X121920000Y-160020000D03*
X114300000Y-162560000D03*
X119380000Y-162560000D03*
X111760000Y-162560000D03*
X129540000Y-162560000D03*
X124460000Y-162560000D03*
X121920000Y-165100000D03*
X116840000Y-167640000D03*
X129540000Y-165100000D03*
X127000000Y-160020000D03*
X124460000Y-157480000D03*
X116840000Y-157480000D03*
X114300000Y-157480000D03*
X119380000Y-157480000D03*
X127000000Y-157480000D03*
X111760000Y-157480000D03*
X121920000Y-157480000D03*
X129540000Y-157480000D03*
X127000000Y-154940000D03*
X116840000Y-154940000D03*
X121920000Y-154940000D03*
X114300000Y-154940000D03*
X119380000Y-154940000D03*
X111760000Y-154940000D03*
X129540000Y-154940000D03*
X124460000Y-154940000D03*
X116840000Y-152400000D03*
X114300000Y-152400000D03*
X119380000Y-152400000D03*
X111760000Y-152400000D03*
X129540000Y-152400000D03*
X124460000Y-152400000D03*
X121920000Y-152400000D03*
X127000000Y-152400000D03*
X121920000Y-149860000D03*
X129540000Y-149860000D03*
X114300000Y-149860000D03*
X111760000Y-149860000D03*
X116840000Y-149860000D03*
X119380000Y-149860000D03*
X127000000Y-149860000D03*
X124460000Y-149860000D03*
X140970000Y-121285000D03*
X140970000Y-126285000D03*
D12*
X116205000Y-135890000D03*
D11*
X116205000Y-138390000D03*
D13*
X121920000Y-140970000D03*
D14*
X137160000Y-133350000D03*
X124460000Y-140970000D03*
X134620000Y-133350000D03*
X127000000Y-140970000D03*
X132080000Y-133350000D03*
X129540000Y-140970000D03*
X129540000Y-133350000D03*
X132080000Y-140970000D03*
X127000000Y-133350000D03*
X134620000Y-140970000D03*
X124460000Y-133350000D03*
X137160000Y-140970000D03*
X121920000Y-133350000D03*
D13*
X127000000Y-109220000D03*
D14*
X175260000Y-93980000D03*
X129540000Y-109220000D03*
X172720000Y-93980000D03*
X132080000Y-109220000D03*
X170180000Y-93980000D03*
X134620000Y-109220000D03*
X167640000Y-93980000D03*
X137160000Y-109220000D03*
X165100000Y-93980000D03*
X139700000Y-109220000D03*
X162560000Y-93980000D03*
X142240000Y-109220000D03*
X160020000Y-93980000D03*
X144780000Y-109220000D03*
X157480000Y-93980000D03*
X147320000Y-109220000D03*
X154940000Y-93980000D03*
X149860000Y-109220000D03*
X152400000Y-93980000D03*
X152400000Y-109220000D03*
X149860000Y-93980000D03*
X154940000Y-109220000D03*
X147320000Y-93980000D03*
X157480000Y-109220000D03*
X144780000Y-93980000D03*
X160020000Y-109220000D03*
X142240000Y-93980000D03*
X162560000Y-109220000D03*
X139700000Y-93980000D03*
X165100000Y-109220000D03*
X137160000Y-93980000D03*
X167640000Y-109220000D03*
X134620000Y-93980000D03*
X170180000Y-109220000D03*
X132080000Y-93980000D03*
X172720000Y-109220000D03*
X129540000Y-93980000D03*
X175260000Y-109220000D03*
X127000000Y-93980000D03*
X119380000Y-119380000D03*
X137160000Y-127000000D03*
X121920000Y-119380000D03*
X134620000Y-127000000D03*
X124460000Y-119380000D03*
X132080000Y-127000000D03*
X127000000Y-119380000D03*
X129540000Y-127000000D03*
X129540000Y-119380000D03*
X127000000Y-127000000D03*
X132080000Y-119380000D03*
X124460000Y-127000000D03*
X134620000Y-119380000D03*
X121920000Y-127000000D03*
X137160000Y-119380000D03*
D13*
X119380000Y-127000000D03*
D14*
X144780000Y-119380000D03*
X172720000Y-134620000D03*
X147320000Y-119380000D03*
X170180000Y-134620000D03*
X149860000Y-119380000D03*
X167640000Y-134620000D03*
X152400000Y-119380000D03*
X165100000Y-134620000D03*
X154940000Y-119380000D03*
X162560000Y-134620000D03*
X157480000Y-119380000D03*
X160020000Y-134620000D03*
X160020000Y-119380000D03*
X157480000Y-134620000D03*
X162560000Y-119380000D03*
X154940000Y-134620000D03*
X165100000Y-119380000D03*
X152400000Y-134620000D03*
X167640000Y-119380000D03*
X149860000Y-134620000D03*
X170180000Y-119380000D03*
X147320000Y-134620000D03*
X172720000Y-119380000D03*
D13*
X144780000Y-134620000D03*
D15*
X146050000Y-75565000D03*
X158750000Y-75565000D03*
X163830000Y-75565000D03*
X166370000Y-75565000D03*
X168910000Y-75565000D03*
X171450000Y-75565000D03*
X138430000Y-75565000D03*
X143510000Y-75565000D03*
X120650000Y-75565000D03*
X123190000Y-109220000D03*
X140970000Y-75565000D03*
X135890000Y-75565000D03*
X133350000Y-75565000D03*
X130810000Y-75565000D03*
X176530000Y-75565000D03*
X171450000Y-78740000D03*
X173990000Y-75565000D03*
X161290000Y-75565000D03*
X173990000Y-81280000D03*
X156210000Y-75565000D03*
D16*
X137160000Y-128270000D02*
X137160000Y-127000000D01*
X135890000Y-129540000D02*
X137160000Y-128270000D01*
X122990000Y-129540000D02*
X135890000Y-129540000D01*
X121920000Y-127000000D02*
X121920000Y-128470000D01*
X121920000Y-128470000D02*
X122990000Y-129540000D01*
X146050000Y-76835000D02*
X146050000Y-75565000D01*
X141605000Y-81280000D02*
X146050000Y-76835000D01*
X137160000Y-81280000D02*
X141605000Y-81280000D01*
X129540000Y-93980000D02*
X129540000Y-88900000D01*
X129540000Y-88900000D02*
X137160000Y-81280000D01*
X158750000Y-76835000D02*
X158750000Y-75565000D01*
X153035000Y-82550000D02*
X158750000Y-76835000D01*
X138430000Y-82550000D02*
X153035000Y-82550000D01*
X132080000Y-93980000D02*
X132080000Y-88900000D01*
X132080000Y-88900000D02*
X138430000Y-82550000D01*
X163830000Y-76835000D02*
X163830000Y-75565000D01*
X156845000Y-83820000D02*
X163830000Y-76835000D01*
X139700000Y-83820000D02*
X156845000Y-83820000D01*
X134620000Y-93980000D02*
X134620000Y-88900000D01*
X134620000Y-88900000D02*
X139700000Y-83820000D01*
X166370000Y-76835000D02*
X166370000Y-75565000D01*
X158115000Y-85090000D02*
X166370000Y-76835000D01*
X140970000Y-85090000D02*
X158115000Y-85090000D01*
X137160000Y-93980000D02*
X137160000Y-88900000D01*
X137160000Y-88900000D02*
X140970000Y-85090000D01*
X168910000Y-76835000D02*
X168910000Y-75565000D01*
X159385000Y-86360000D02*
X168910000Y-76835000D01*
X142240000Y-86360000D02*
X159385000Y-86360000D01*
X139700000Y-93980000D02*
X139700000Y-88900000D01*
X139700000Y-88900000D02*
X142240000Y-86360000D01*
X134620000Y-106045000D02*
X134620000Y-109220000D01*
X140970000Y-99695000D02*
X134620000Y-106045000D01*
X140970000Y-95250000D02*
X140970000Y-99695000D01*
X171450000Y-75565000D02*
X171450000Y-76835000D01*
X160655000Y-87630000D02*
X143510000Y-87630000D01*
X143510000Y-87630000D02*
X140950010Y-90189990D01*
X171450000Y-76835000D02*
X160655000Y-87630000D01*
X140950010Y-90189990D02*
X140950010Y-95230010D01*
X140950010Y-95230010D02*
X140970000Y-95250000D01*
X125730000Y-111760000D02*
X131445000Y-111760000D01*
X132080000Y-111125000D02*
X132080000Y-109220000D01*
X138430000Y-76835000D02*
X137160000Y-78105000D01*
X125095000Y-88265000D02*
X125095000Y-111125000D01*
X131445000Y-111760000D02*
X132080000Y-111125000D01*
X138430000Y-75565000D02*
X138430000Y-76835000D01*
X137160000Y-78105000D02*
X135255000Y-78105000D01*
X135255000Y-78105000D02*
X125095000Y-88265000D01*
X125095000Y-111125000D02*
X125730000Y-111760000D01*
X129540000Y-103505000D02*
X129540000Y-109220000D01*
X143510000Y-76835000D02*
X140335000Y-80010000D01*
X143510000Y-75565000D02*
X143510000Y-76835000D01*
X135890000Y-80010000D02*
X128270000Y-87630000D01*
X140335000Y-80010000D02*
X135890000Y-80010000D01*
X128270000Y-87630000D02*
X128270000Y-102235000D01*
X128270000Y-102235000D02*
X129540000Y-103505000D01*
D17*
X120650000Y-75565000D02*
X120650000Y-93345000D01*
X120650000Y-93345000D02*
X123190000Y-95885000D01*
X123190000Y-95885000D02*
X123190000Y-109220000D01*
D16*
X171450000Y-114300000D02*
X170180000Y-115570000D01*
X170180000Y-115570000D02*
X170180000Y-119380000D01*
X171450000Y-107315000D02*
X171450000Y-114300000D01*
X175260000Y-93980000D02*
X175260000Y-103505000D01*
X175260000Y-103505000D02*
X171450000Y-107315000D01*
X172720000Y-101600000D02*
X172720000Y-93980000D01*
X168910000Y-105410000D02*
X172720000Y-101600000D01*
X168910000Y-114300000D02*
X168910000Y-105410000D01*
X167640000Y-119380000D02*
X167640000Y-115570000D01*
X167640000Y-115570000D02*
X168910000Y-114300000D01*
X166370000Y-114300000D02*
X165100000Y-115570000D01*
X166370000Y-104775000D02*
X166370000Y-114300000D01*
X170180000Y-93980000D02*
X170180000Y-100965000D01*
X165100000Y-117680000D02*
X165100000Y-119380000D01*
X165100000Y-115570000D02*
X165100000Y-117680000D01*
X170180000Y-100965000D02*
X166370000Y-104775000D01*
X167640000Y-100330000D02*
X167640000Y-93980000D01*
X163830000Y-104140000D02*
X167640000Y-100330000D01*
X163830000Y-114300000D02*
X163830000Y-104140000D01*
X162560000Y-119380000D02*
X162560000Y-115570000D01*
X162560000Y-115570000D02*
X163830000Y-114300000D01*
X163830000Y-115570000D02*
X163830000Y-130810000D01*
X163830000Y-130810000D02*
X165100000Y-132080000D01*
X165100000Y-109220000D02*
X165100000Y-114300000D01*
X165100000Y-132080000D02*
X165100000Y-134620000D01*
X165100000Y-114300000D02*
X163830000Y-115570000D01*
X168910000Y-81280000D02*
X171050001Y-79139999D01*
X168910000Y-100647500D02*
X168910000Y-81280000D01*
X165100000Y-104457500D02*
X168910000Y-100647500D01*
X165100000Y-109220000D02*
X165100000Y-104457500D01*
X171050001Y-79139999D02*
X171450000Y-78740000D01*
X166370000Y-115570000D02*
X166370000Y-130770020D01*
X167640000Y-109220000D02*
X167640000Y-114300000D01*
X167640000Y-132040020D02*
X167640000Y-134620000D01*
X166370000Y-130770020D02*
X167640000Y-132040020D01*
X167640000Y-114300000D02*
X166370000Y-115570000D01*
X173990000Y-78740000D02*
X173990000Y-75565000D01*
X171450000Y-81280000D02*
X173990000Y-78740000D01*
X171450000Y-101319962D02*
X171450000Y-81280000D01*
X167640000Y-109220000D02*
X167640000Y-105129962D01*
X167640000Y-105129962D02*
X171450000Y-101319962D01*
X170180000Y-132080000D02*
X170180000Y-134620000D01*
X168910000Y-130810000D02*
X170180000Y-132080000D01*
X168910000Y-115570000D02*
X168910000Y-130810000D01*
X170180000Y-109220000D02*
X170180000Y-114300000D01*
X170180000Y-114300000D02*
X168910000Y-115570000D01*
X170180000Y-109220000D02*
X170180000Y-106045000D01*
X174009990Y-102215010D02*
X174009990Y-94897771D01*
X170180000Y-106045000D02*
X174009990Y-102215010D01*
X174009990Y-94897771D02*
X174009990Y-81299990D01*
X174009990Y-81299990D02*
X173990000Y-81280000D01*
X172720000Y-119380000D02*
X172720000Y-109220000D01*
X144780000Y-132080000D02*
X144780000Y-134620000D01*
X144780000Y-114300000D02*
X143529990Y-115550010D01*
X143529990Y-115550010D02*
X143529990Y-119497771D01*
X144780000Y-109220000D02*
X144780000Y-114300000D01*
X143529990Y-119497771D02*
X143510000Y-119517761D01*
X143510000Y-119517761D02*
X143510000Y-130810000D01*
X143510000Y-130810000D02*
X144780000Y-132080000D01*
X150812500Y-102235000D02*
X157480000Y-95567500D01*
X127000000Y-117680000D02*
X127840000Y-116840000D01*
X157480000Y-95567500D02*
X157480000Y-93980000D01*
X143490010Y-111779990D02*
X143490010Y-107334990D01*
X127000000Y-119380000D02*
X127000000Y-117680000D01*
X127840000Y-116840000D02*
X138430000Y-116840000D01*
X148590000Y-102235000D02*
X150812500Y-102235000D01*
X138430000Y-116840000D02*
X143490010Y-111779990D01*
X143490010Y-107334990D02*
X148590000Y-102235000D01*
X146050000Y-130810000D02*
X147320000Y-132080000D01*
X146050000Y-115570000D02*
X146050000Y-130810000D01*
X147320000Y-132080000D02*
X147320000Y-134620000D01*
X147320000Y-109220000D02*
X147320000Y-114300000D01*
X147320000Y-114300000D02*
X146050000Y-115570000D01*
X124460000Y-123825000D02*
X124460000Y-127000000D01*
X125730000Y-122555000D02*
X124460000Y-123825000D01*
X125730000Y-117475000D02*
X125730000Y-122555000D01*
X127635000Y-115570000D02*
X125730000Y-117475000D01*
X154940000Y-95567500D02*
X149542500Y-100965000D01*
X154940000Y-93980000D02*
X154940000Y-95567500D01*
X137795000Y-115570000D02*
X127635000Y-115570000D01*
X149542500Y-100965000D02*
X147320000Y-100965000D01*
X147320000Y-100965000D02*
X140970000Y-107315000D01*
X140970000Y-107315000D02*
X140970000Y-112395000D01*
X140970000Y-112395000D02*
X137795000Y-115570000D01*
X149860000Y-132080000D02*
X149860000Y-134620000D01*
X148590000Y-115570000D02*
X148590000Y-130810000D01*
X149860000Y-109220000D02*
X149860000Y-114300000D01*
X148590000Y-130810000D02*
X149860000Y-132080000D01*
X149860000Y-114300000D02*
X148590000Y-115570000D01*
X121920000Y-117910000D02*
X121920000Y-119380000D01*
X125530000Y-114300000D02*
X121920000Y-117910000D01*
X136525000Y-114300000D02*
X125530000Y-114300000D01*
X152400000Y-95567500D02*
X148272500Y-99695000D01*
X152400000Y-93980000D02*
X152400000Y-95567500D01*
X148272500Y-99695000D02*
X146050000Y-99695000D01*
X146050000Y-99695000D02*
X138430000Y-107315000D01*
X138430000Y-107315000D02*
X138430000Y-112395000D01*
X138430000Y-112395000D02*
X136525000Y-114300000D01*
X152400000Y-132080000D02*
X152400000Y-134620000D01*
X151130000Y-115570000D02*
X151130000Y-130810000D01*
X152400000Y-109220000D02*
X152400000Y-114300000D01*
X151130000Y-130810000D02*
X152400000Y-132080000D01*
X152400000Y-114300000D02*
X151130000Y-115570000D01*
X154940000Y-114300000D02*
X154940000Y-109220000D01*
X153670000Y-115570000D02*
X154940000Y-114300000D01*
X154940000Y-132080000D02*
X153670000Y-130810000D01*
X153689990Y-130790010D02*
X153689990Y-117494990D01*
X154940000Y-134620000D02*
X154940000Y-132080000D01*
X153670000Y-130810000D02*
X153689990Y-130790010D01*
X153689990Y-117494990D02*
X153670000Y-117475000D01*
X153670000Y-117475000D02*
X153670000Y-115570000D01*
X157480000Y-132080000D02*
X157480000Y-134620000D01*
X156210000Y-130810000D02*
X157480000Y-132080000D01*
X156210000Y-115570000D02*
X156210000Y-130810000D01*
X157480000Y-109220000D02*
X157480000Y-114300000D01*
X157480000Y-114300000D02*
X156210000Y-115570000D01*
X160020000Y-114300000D02*
X160020000Y-109220000D01*
X158750000Y-115570000D02*
X160020000Y-114300000D01*
X158750000Y-130810000D02*
X158750000Y-115570000D01*
X160020000Y-134620000D02*
X160020000Y-132080000D01*
X160020000Y-132080000D02*
X158750000Y-130810000D01*
X124460000Y-131445000D02*
X124460000Y-133350000D01*
X122300010Y-130810000D02*
X123825000Y-130810000D01*
X120669990Y-129179980D02*
X122300010Y-130810000D01*
X123825000Y-130810000D02*
X124460000Y-131445000D01*
X120669990Y-127654990D02*
X120669990Y-129179980D01*
X120650000Y-116840000D02*
X120650000Y-127635000D01*
X142240000Y-93980000D02*
X142240000Y-100965000D01*
X124460000Y-113030000D02*
X120650000Y-116840000D01*
X135890000Y-107315000D02*
X135890000Y-111760000D01*
X142240000Y-100965000D02*
X135890000Y-107315000D01*
X135890000Y-111760000D02*
X134620000Y-113030000D01*
X120650000Y-127635000D02*
X120669990Y-127654990D01*
X134620000Y-113030000D02*
X124460000Y-113030000D01*
X162560000Y-132080000D02*
X162560000Y-134620000D01*
X162560000Y-114300000D02*
X161270010Y-115589990D01*
X162560000Y-109220000D02*
X162560000Y-114300000D01*
X161270010Y-115589990D02*
X161270010Y-126980010D01*
X161270010Y-126980010D02*
X161290000Y-127000000D01*
X161290000Y-130810000D02*
X162560000Y-132080000D01*
X161290000Y-127000000D02*
X161290000Y-130810000D01*
M02*
