M48
; DRILL file {KiCad 5.1.2-f72e74a~84~ubuntu18.04.1} date Sun 07 Jul 2019 02:55:56 PM MSK
; FORMAT={-:-/ absolute / metric / decimal}
; #@! TF.CreationDate,2019-07-07T14:55:56+03:00
; #@! TF.GenerationSoftware,Kicad,Pcbnew,5.1.2-f72e74a~84~ubuntu18.04.1
; #@! TF.FileFunction,Plated,1,2,PTH
FMAT,2
METRIC
T1C0.400
T2C0.800
T3C0.900
%
G90
G05
T1
X120.65Y-75.565
X123.19Y-109.22
X130.81Y-75.565
X133.35Y-75.565
X135.89Y-75.565
X138.43Y-75.565
X140.97Y-75.565
X143.51Y-75.565
X146.05Y-75.565
X156.21Y-75.565
X158.75Y-75.565
X161.29Y-75.565
X163.83Y-75.565
X166.37Y-75.565
X168.91Y-75.565
X171.45Y-75.565
X171.45Y-78.74
X173.99Y-75.565
X173.99Y-81.28
X176.53Y-75.565
T2
X140.97Y-121.285
X140.97Y-126.285
X121.92Y-133.35
X121.92Y-140.97
X124.46Y-133.35
X124.46Y-140.97
X127.0Y-133.35
X127.0Y-140.97
X129.54Y-133.35
X129.54Y-140.97
X132.08Y-133.35
X132.08Y-140.97
X134.62Y-133.35
X134.62Y-140.97
X137.16Y-133.35
X137.16Y-140.97
X119.38Y-119.38
X119.38Y-127.0
X121.92Y-119.38
X121.92Y-127.0
X124.46Y-119.38
X124.46Y-127.0
X127.0Y-119.38
X127.0Y-127.0
X129.54Y-119.38
X129.54Y-127.0
X132.08Y-119.38
X132.08Y-127.0
X134.62Y-119.38
X134.62Y-127.0
X137.16Y-119.38
X137.16Y-127.0
X116.205Y-135.89
X116.205Y-138.39
X144.78Y-119.38
X144.78Y-134.62
X147.32Y-119.38
X147.32Y-134.62
X149.86Y-119.38
X149.86Y-134.62
X152.4Y-119.38
X152.4Y-134.62
X154.94Y-119.38
X154.94Y-134.62
X157.48Y-119.38
X157.48Y-134.62
X160.02Y-119.38
X160.02Y-134.62
X162.56Y-119.38
X162.56Y-134.62
X165.1Y-119.38
X165.1Y-134.62
X167.64Y-119.38
X167.64Y-134.62
X170.18Y-119.38
X170.18Y-134.62
X172.72Y-119.38
X172.72Y-134.62
X127.0Y-93.98
X127.0Y-109.22
X129.54Y-93.98
X129.54Y-109.22
X132.08Y-93.98
X132.08Y-109.22
X134.62Y-93.98
X134.62Y-109.22
X137.16Y-93.98
X137.16Y-109.22
X139.7Y-93.98
X139.7Y-109.22
X142.24Y-93.98
X142.24Y-109.22
X144.78Y-93.98
X144.78Y-109.22
X147.32Y-93.98
X147.32Y-109.22
X149.86Y-93.98
X149.86Y-109.22
X152.4Y-93.98
X152.4Y-109.22
X154.94Y-93.98
X154.94Y-109.22
X157.48Y-93.98
X157.48Y-109.22
X160.02Y-93.98
X160.02Y-109.22
X162.56Y-93.98
X162.56Y-109.22
X165.1Y-93.98
X165.1Y-109.22
X167.64Y-93.98
X167.64Y-109.22
X170.18Y-93.98
X170.18Y-109.22
X172.72Y-93.98
X172.72Y-109.22
X175.26Y-93.98
X175.26Y-109.22
T3
X162.56Y-157.48
X134.62Y-160.02
X190.5Y-154.94
X139.7Y-172.72
X190.5Y-137.16
X180.34Y-139.7
X127.0Y-149.86
X165.1Y-162.56
X177.8Y-172.72
X190.5Y-132.08
X152.4Y-154.94
X167.64Y-160.02
X190.5Y-109.22
X144.78Y-170.18
X149.86Y-167.64
X167.64Y-147.32
X147.32Y-160.02
X172.72Y-154.94
X172.72Y-157.48
X190.5Y-152.4
X185.42Y-127.0
X137.16Y-170.18
X167.64Y-157.48
X129.54Y-172.72
X185.42Y-134.62
X175.26Y-162.56
X167.64Y-172.72
X139.7Y-154.94
X119.38Y-160.02
X165.1Y-149.86
X129.54Y-167.64
X114.3Y-167.64
X170.18Y-144.78
X177.8Y-144.78
X185.42Y-162.56
X165.1Y-165.1
X190.5Y-167.64
X175.26Y-154.94
X142.24Y-154.94
X124.46Y-160.02
X121.92Y-149.86
X177.8Y-152.4
X144.78Y-144.78
X170.18Y-152.4
X147.32Y-154.94
X187.96Y-127.0
X157.48Y-144.78
X142.24Y-160.02
X129.54Y-154.94
X185.42Y-154.94
X177.8Y-147.32
X132.08Y-160.02
X132.08Y-167.64
X187.96Y-162.56
X182.88Y-144.78
X172.72Y-160.02
X167.64Y-144.78
X137.16Y-172.72
X177.8Y-175.26
X114.3Y-152.4
X137.16Y-165.1
X111.76Y-162.56
X119.38Y-157.48
X180.34Y-149.86
X152.4Y-152.4
X129.54Y-152.4
X180.34Y-154.94
X129.54Y-157.48
X177.8Y-165.1
X124.46Y-152.4
X190.5Y-114.3
X182.88Y-160.02
X144.78Y-157.48
X175.26Y-167.64
X175.26Y-152.4
X190.5Y-127.0
X162.56Y-154.94
X162.56Y-144.78
X134.62Y-157.48
X180.34Y-165.1
X142.24Y-149.86
X149.86Y-157.48
X187.96Y-154.94
X182.88Y-116.84
X142.24Y-175.26
X182.88Y-167.64
X137.16Y-152.4
X187.96Y-144.78
X172.72Y-162.56
X175.26Y-157.48
X175.26Y-144.78
X180.34Y-137.16
X180.34Y-167.64
X152.4Y-162.56
X149.86Y-147.32
X172.72Y-172.72
X149.86Y-162.56
X160.02Y-165.1
X144.78Y-149.86
X134.62Y-154.94
X177.8Y-167.64
X185.42Y-167.64
X182.88Y-129.54
X187.96Y-119.38
X170.18Y-167.64
X137.16Y-149.86
X180.34Y-147.32
X157.48Y-147.32
X132.08Y-152.4
X185.42Y-160.02
X139.7Y-165.1
X170.18Y-162.56
X157.48Y-157.48
X154.94Y-149.86
X185.42Y-124.46
X144.78Y-175.26
X182.88Y-119.38
X165.1Y-154.94
X139.7Y-152.4
X144.78Y-152.4
X111.76Y-152.4
X134.62Y-152.4
X154.94Y-162.56
X149.86Y-144.78
X167.64Y-162.56
X182.88Y-127.0
X154.94Y-167.64
X157.48Y-149.86
X127.0Y-165.1
X114.3Y-162.56
X111.76Y-160.02
X116.84Y-162.56
X127.0Y-162.56
X121.92Y-167.64
X111.76Y-165.1
X147.32Y-170.18
X187.96Y-149.86
X142.24Y-152.4
X144.78Y-162.56
X167.64Y-170.18
X167.64Y-154.94
X182.88Y-124.46
X177.8Y-157.48
X121.92Y-170.18
X165.1Y-147.32
X147.32Y-165.1
X127.0Y-175.26
X132.08Y-170.18
X162.56Y-172.72
X187.96Y-132.08
X157.48Y-172.72
X182.88Y-111.76
X147.32Y-144.78
X134.62Y-149.86
X149.86Y-149.86
X182.88Y-157.48
X170.18Y-157.48
X167.64Y-149.86
X111.76Y-149.86
X127.0Y-160.02
X182.88Y-149.86
X190.5Y-142.24
X132.08Y-149.86
X116.84Y-160.02
X124.46Y-165.1
X142.24Y-167.64
X185.42Y-132.08
X147.32Y-152.4
X144.78Y-154.94
X185.42Y-137.16
X149.86Y-170.18
X160.02Y-160.02
X175.26Y-170.18
X172.72Y-175.26
X116.84Y-165.1
X170.18Y-175.26
X172.72Y-167.64
X182.88Y-142.24
X160.02Y-157.48
X167.64Y-152.4
X190.5Y-129.54
X162.56Y-165.1
X152.4Y-160.02
X152.4Y-144.78
X132.08Y-175.26
X185.42Y-149.86
X175.26Y-172.72
X157.48Y-165.1
X152.4Y-175.26
X177.8Y-162.56
X154.94Y-170.18
X154.94Y-154.94
X152.4Y-149.86
X185.42Y-144.78
X170.18Y-165.1
X187.96Y-111.76
X139.7Y-149.86
X144.78Y-165.1
X124.46Y-167.64
X129.54Y-149.86
X134.62Y-167.64
X172.72Y-144.78
X187.96Y-109.22
X137.16Y-175.26
X187.96Y-129.54
X132.08Y-162.56
X185.42Y-111.76
X162.56Y-167.64
X147.32Y-167.64
X149.86Y-154.94
X116.84Y-157.48
X182.88Y-152.4
X119.38Y-167.64
X121.92Y-160.02
X127.0Y-152.4
X165.1Y-160.02
X187.96Y-139.7
X160.02Y-167.64
X177.8Y-154.94
X154.94Y-152.4
X190.5Y-162.56
X182.88Y-121.92
X157.48Y-162.56
X185.42Y-165.1
X137.16Y-167.64
X190.5Y-157.48
X187.96Y-124.46
X170.18Y-147.32
X190.5Y-160.02
X185.42Y-139.7
X167.64Y-165.1
X147.32Y-157.48
X175.26Y-165.1
X127.0Y-172.72
X127.0Y-157.48
X116.84Y-152.4
X114.3Y-165.1
X116.84Y-167.64
X160.02Y-154.94
X185.42Y-129.54
X165.1Y-152.4
X182.88Y-109.22
X180.34Y-152.4
X154.94Y-157.48
X190.5Y-165.1
X114.3Y-154.94
X124.46Y-154.94
X137.16Y-162.56
X162.56Y-162.56
X187.96Y-165.1
X187.96Y-137.16
X147.32Y-172.72
X185.42Y-109.22
X167.64Y-175.26
X157.48Y-152.4
X144.78Y-172.72
X129.54Y-170.18
X154.94Y-160.02
X139.7Y-157.48
X190.5Y-124.46
X142.24Y-162.56
X160.02Y-172.72
X170.18Y-149.86
X134.62Y-170.18
X157.48Y-160.02
X162.56Y-160.02
X185.42Y-121.92
X190.5Y-134.62
X149.86Y-152.4
X185.42Y-152.4
X121.92Y-152.4
X144.78Y-167.64
X160.02Y-162.56
X157.48Y-175.26
X149.86Y-165.1
X152.4Y-165.1
X190.5Y-147.32
X142.24Y-172.72
X160.02Y-149.86
X172.72Y-147.32
X180.34Y-142.24
X167.64Y-167.64
X187.96Y-147.32
X160.02Y-170.18
X190.5Y-116.84
X129.54Y-175.26
X170.18Y-170.18
X177.8Y-170.18
X185.42Y-157.48
X114.3Y-149.86
X127.0Y-167.64
X121.92Y-154.94
X165.1Y-172.72
X182.88Y-147.32
X182.88Y-162.56
X175.26Y-175.26
X187.96Y-134.62
X134.62Y-172.72
X187.96Y-142.24
X190.5Y-144.78
X185.42Y-142.24
X165.1Y-175.26
X160.02Y-175.26
X182.88Y-132.08
X187.96Y-114.3
X182.88Y-154.94
X124.46Y-175.26
X170.18Y-172.72
X172.72Y-149.86
X132.08Y-172.72
X147.32Y-147.32
X180.34Y-162.56
X154.94Y-172.72
X132.08Y-154.94
X149.86Y-172.72
X177.8Y-149.86
X182.88Y-165.1
X119.38Y-154.94
X190.5Y-111.76
X162.56Y-152.4
X149.86Y-160.02
X182.88Y-134.62
X134.62Y-165.1
X137.16Y-154.94
X139.7Y-162.56
X116.84Y-149.86
X190.5Y-121.92
X116.84Y-154.94
X119.38Y-162.56
X172.72Y-165.1
X114.3Y-160.02
X154.94Y-165.1
X177.8Y-160.02
X180.34Y-160.02
X180.34Y-144.78
X175.26Y-160.02
X124.46Y-172.72
X185.42Y-147.32
X139.7Y-167.64
X172.72Y-170.18
X152.4Y-147.32
X124.46Y-170.18
X185.42Y-116.84
X162.56Y-147.32
X162.56Y-175.26
X172.72Y-152.4
X154.94Y-147.32
X152.4Y-167.64
X185.42Y-119.38
X144.78Y-147.32
X180.34Y-170.18
X187.96Y-157.48
X185.42Y-114.3
X132.08Y-157.48
X162.56Y-170.18
X187.96Y-167.64
X190.5Y-139.7
X160.02Y-147.32
X147.32Y-162.56
X190.5Y-119.38
X162.56Y-149.86
X165.1Y-167.64
X160.02Y-152.4
X170.18Y-154.94
X187.96Y-160.02
X124.46Y-149.86
X129.54Y-165.1
X124.46Y-162.56
X144.78Y-160.02
X147.32Y-175.26
X147.32Y-149.86
X180.34Y-157.48
X129.54Y-162.56
X154.94Y-144.78
X119.38Y-165.1
X137.16Y-157.48
X119.38Y-149.86
X119.38Y-152.4
X121.92Y-162.56
X139.7Y-160.02
X165.1Y-144.78
X187.96Y-116.84
X175.26Y-147.32
X127.0Y-170.18
X157.48Y-167.64
X175.26Y-149.86
X142.24Y-157.48
X142.24Y-170.18
X152.4Y-170.18
X187.96Y-152.4
X160.02Y-144.78
X157.48Y-170.18
X157.48Y-154.94
X152.4Y-157.48
X111.76Y-154.94
X111.76Y-167.64
X129.54Y-160.02
X154.94Y-175.26
X142.24Y-165.1
X139.7Y-175.26
X121.92Y-165.1
X187.96Y-121.92
X132.08Y-165.1
X134.62Y-162.56
X182.88Y-137.16
X124.46Y-157.48
X137.16Y-160.02
X127.0Y-154.94
X111.76Y-157.48
X114.3Y-157.48
X121.92Y-157.48
X182.88Y-139.7
X190.5Y-149.86
X139.7Y-170.18
X182.88Y-114.3
X152.4Y-172.72
X149.86Y-175.26
X165.1Y-170.18
X134.62Y-175.26
X170.18Y-160.02
X165.1Y-157.48
T0
M30
