G04 #@! TF.GenerationSoftware,KiCad,Pcbnew,5.1.2-f72e74a~84~ubuntu18.04.1*
G04 #@! TF.CreationDate,2019-07-07T13:50:11+03:00*
G04 #@! TF.ProjectId,fart,66617274-2e6b-4696-9361-645f70636258,rev?*
G04 #@! TF.SameCoordinates,Original*
G04 #@! TF.FileFunction,Copper,L2,Bot*
G04 #@! TF.FilePolarity,Positive*
%FSLAX46Y46*%
G04 Gerber Fmt 4.6, Leading zero omitted, Abs format (unit mm)*
G04 Created by KiCad (PCBNEW 5.1.2-f72e74a~84~ubuntu18.04.1) date 2019-07-07 13:50:11*
%MOMM*%
%LPD*%
G04 APERTURE LIST*
%ADD10C,1.600000*%
%ADD11R,1.600000X1.600000*%
%ADD12C,0.100000*%
%ADD13C,1.524000*%
%ADD14R,1.600000X2.400000*%
%ADD15O,1.600000X2.400000*%
%ADD16C,0.800000*%
%ADD17C,1.000000*%
%ADD18C,2.000000*%
%ADD19C,0.500000*%
G04 APERTURE END LIST*
D10*
X187960000Y-109220000D03*
X190500000Y-111760000D03*
X185420000Y-111760000D03*
X182880000Y-111760000D03*
X185420000Y-109220000D03*
X190500000Y-109220000D03*
X182880000Y-109220000D03*
X187960000Y-111760000D03*
X190500000Y-132080000D03*
X182880000Y-124460000D03*
X182880000Y-116840000D03*
X185420000Y-119380000D03*
X182880000Y-114300000D03*
X187960000Y-119380000D03*
X187960000Y-114300000D03*
X190500000Y-127000000D03*
X190500000Y-116840000D03*
X185420000Y-127000000D03*
X190500000Y-129540000D03*
X182880000Y-134620000D03*
X185420000Y-129540000D03*
X182880000Y-129540000D03*
X190500000Y-124460000D03*
X185420000Y-132080000D03*
X187960000Y-129540000D03*
X185420000Y-116840000D03*
X182880000Y-132080000D03*
X185420000Y-114300000D03*
X185420000Y-121920000D03*
X187960000Y-116840000D03*
X185420000Y-124460000D03*
X190500000Y-119380000D03*
X187960000Y-132080000D03*
X190500000Y-114300000D03*
X185420000Y-134620000D03*
X182880000Y-127000000D03*
X182880000Y-119380000D03*
X187960000Y-134620000D03*
X182880000Y-121920000D03*
X190500000Y-134620000D03*
X187960000Y-124460000D03*
X190500000Y-121920000D03*
X187960000Y-127000000D03*
X187960000Y-121920000D03*
X132080000Y-175260000D03*
X147320000Y-175260000D03*
X162560000Y-175260000D03*
X149860000Y-175260000D03*
X172720000Y-175260000D03*
X139700000Y-175260000D03*
X175260000Y-175260000D03*
X129540000Y-175260000D03*
X144780000Y-175260000D03*
X134620000Y-175260000D03*
X170180000Y-175260000D03*
X152400000Y-175260000D03*
X177800000Y-175260000D03*
X167640000Y-175260000D03*
X127000000Y-175260000D03*
X160020000Y-175260000D03*
X165100000Y-175260000D03*
X157480000Y-175260000D03*
X154940000Y-175260000D03*
X137160000Y-175260000D03*
X142240000Y-175260000D03*
X124460000Y-175260000D03*
X180340000Y-170180000D03*
X175260000Y-172720000D03*
X149860000Y-172720000D03*
X147320000Y-172720000D03*
X144780000Y-172720000D03*
X177800000Y-172720000D03*
X167640000Y-172720000D03*
X165100000Y-172720000D03*
X162560000Y-172720000D03*
X134620000Y-172720000D03*
X170180000Y-172720000D03*
X157480000Y-172720000D03*
X127000000Y-172720000D03*
X152400000Y-172720000D03*
X139700000Y-172720000D03*
X160020000Y-172720000D03*
X124460000Y-172720000D03*
X129540000Y-172720000D03*
X154940000Y-172720000D03*
X172720000Y-172720000D03*
X142240000Y-172720000D03*
X132080000Y-172720000D03*
X137160000Y-172720000D03*
X139700000Y-170180000D03*
X124460000Y-170180000D03*
X142240000Y-170180000D03*
X147320000Y-170180000D03*
X127000000Y-170180000D03*
X177800000Y-170180000D03*
X175260000Y-170180000D03*
X167640000Y-170180000D03*
X152400000Y-170180000D03*
X157480000Y-170180000D03*
X162560000Y-170180000D03*
X165100000Y-170180000D03*
X172720000Y-170180000D03*
X160020000Y-170180000D03*
X170180000Y-170180000D03*
X129540000Y-170180000D03*
X149860000Y-170180000D03*
X132080000Y-170180000D03*
X121920000Y-170180000D03*
X134620000Y-170180000D03*
X154940000Y-170180000D03*
X137160000Y-170180000D03*
X144780000Y-170180000D03*
X182880000Y-137160000D03*
X190500000Y-137160000D03*
X185420000Y-137160000D03*
X187960000Y-137160000D03*
X180340000Y-137160000D03*
X185420000Y-139700000D03*
X187960000Y-139700000D03*
X180340000Y-139700000D03*
X190500000Y-139700000D03*
X182880000Y-139700000D03*
X180340000Y-142240000D03*
X185420000Y-142240000D03*
X182880000Y-142240000D03*
X190500000Y-142240000D03*
X187960000Y-142240000D03*
X160020000Y-144780000D03*
X182880000Y-144780000D03*
X167640000Y-144780000D03*
X162560000Y-144780000D03*
X177800000Y-144780000D03*
X190500000Y-144780000D03*
X152400000Y-144780000D03*
X149860000Y-144780000D03*
X157480000Y-144780000D03*
X185420000Y-144780000D03*
X154940000Y-144780000D03*
X170180000Y-144780000D03*
X144780000Y-144780000D03*
X165100000Y-144780000D03*
X180340000Y-144780000D03*
X147320000Y-144780000D03*
X187960000Y-144780000D03*
X172720000Y-144780000D03*
X175260000Y-144780000D03*
X175260000Y-147320000D03*
X149860000Y-147320000D03*
X144780000Y-147320000D03*
X167640000Y-147320000D03*
X190500000Y-147320000D03*
X154940000Y-147320000D03*
X185420000Y-147320000D03*
X172720000Y-147320000D03*
X157480000Y-147320000D03*
X177800000Y-147320000D03*
X152400000Y-147320000D03*
X162560000Y-147320000D03*
X165100000Y-147320000D03*
X170180000Y-147320000D03*
X160020000Y-147320000D03*
X182880000Y-147320000D03*
X147320000Y-147320000D03*
X180340000Y-147320000D03*
X187960000Y-147320000D03*
X167640000Y-152400000D03*
X177800000Y-157480000D03*
X180340000Y-167640000D03*
X162560000Y-160020000D03*
X177800000Y-160020000D03*
X165100000Y-154940000D03*
X187960000Y-154940000D03*
X182880000Y-157480000D03*
X185420000Y-160020000D03*
X167640000Y-160020000D03*
X154940000Y-157480000D03*
X165100000Y-167640000D03*
X157480000Y-154940000D03*
X177800000Y-162560000D03*
X190500000Y-160020000D03*
X165100000Y-157480000D03*
X177800000Y-154940000D03*
X190500000Y-162560000D03*
X182880000Y-167640000D03*
X157480000Y-149860000D03*
X162560000Y-157480000D03*
X160020000Y-162560000D03*
X154940000Y-154940000D03*
X152400000Y-162560000D03*
X154940000Y-160020000D03*
X152400000Y-160020000D03*
X177800000Y-149860000D03*
X187960000Y-167640000D03*
X157480000Y-152400000D03*
X177800000Y-152400000D03*
X165100000Y-162560000D03*
X154940000Y-165100000D03*
X160020000Y-165100000D03*
X175260000Y-152400000D03*
X160020000Y-154940000D03*
X172720000Y-154940000D03*
X187960000Y-152400000D03*
X190500000Y-154940000D03*
X175260000Y-149860000D03*
X190500000Y-149860000D03*
X157480000Y-167640000D03*
X162560000Y-152400000D03*
X172720000Y-149860000D03*
X162560000Y-165100000D03*
X170180000Y-162560000D03*
X172720000Y-152400000D03*
X185420000Y-152400000D03*
X154940000Y-149860000D03*
X160020000Y-149860000D03*
X167640000Y-165100000D03*
X185420000Y-157480000D03*
X167640000Y-154940000D03*
X172720000Y-160020000D03*
X152400000Y-154940000D03*
X167640000Y-157480000D03*
X185420000Y-149860000D03*
X187960000Y-165100000D03*
X177800000Y-165100000D03*
X172720000Y-162560000D03*
X170180000Y-165100000D03*
X167640000Y-167640000D03*
X170180000Y-157480000D03*
X152400000Y-167640000D03*
X175260000Y-165100000D03*
X182880000Y-162560000D03*
X152400000Y-157480000D03*
X154940000Y-167640000D03*
X175260000Y-162560000D03*
X152400000Y-165100000D03*
X154940000Y-162560000D03*
X190500000Y-165100000D03*
X152400000Y-149860000D03*
X170180000Y-167640000D03*
X182880000Y-160020000D03*
X190500000Y-167640000D03*
X160020000Y-157480000D03*
X175260000Y-154940000D03*
X180340000Y-160020000D03*
X165100000Y-165100000D03*
X185420000Y-154940000D03*
X187960000Y-162560000D03*
X180340000Y-165100000D03*
X180340000Y-152400000D03*
X172720000Y-167640000D03*
X180340000Y-157480000D03*
X170180000Y-149860000D03*
X172720000Y-157480000D03*
X162560000Y-167640000D03*
X182880000Y-154940000D03*
X182880000Y-149860000D03*
X190500000Y-152400000D03*
X175260000Y-167640000D03*
X180340000Y-162560000D03*
X160020000Y-167640000D03*
X187960000Y-149860000D03*
X157480000Y-160020000D03*
X175260000Y-157480000D03*
X182880000Y-152400000D03*
X187960000Y-160020000D03*
X170180000Y-160020000D03*
X165100000Y-149860000D03*
X167640000Y-162560000D03*
X162560000Y-149860000D03*
X154940000Y-152400000D03*
X160020000Y-152400000D03*
X152400000Y-152400000D03*
X170180000Y-152400000D03*
X165100000Y-152400000D03*
X157480000Y-162560000D03*
X165100000Y-160020000D03*
X162560000Y-154940000D03*
X177800000Y-167640000D03*
X157480000Y-157480000D03*
X170180000Y-154940000D03*
X182880000Y-165100000D03*
X180340000Y-149860000D03*
X190500000Y-157480000D03*
X187960000Y-157480000D03*
X157480000Y-165100000D03*
X185420000Y-162560000D03*
X160020000Y-160020000D03*
X185420000Y-167640000D03*
X175260000Y-160020000D03*
X172720000Y-165100000D03*
X167640000Y-149860000D03*
X180340000Y-154940000D03*
X162560000Y-162560000D03*
X185420000Y-165100000D03*
X147320000Y-152400000D03*
X142240000Y-160020000D03*
X144780000Y-154940000D03*
X147320000Y-160020000D03*
X134620000Y-157480000D03*
X144780000Y-167640000D03*
X137160000Y-154940000D03*
X144780000Y-157480000D03*
X137160000Y-149860000D03*
X142240000Y-157480000D03*
X139700000Y-162560000D03*
X134620000Y-154940000D03*
X132080000Y-162560000D03*
X134620000Y-160020000D03*
X132080000Y-160020000D03*
X137160000Y-152400000D03*
X144780000Y-162560000D03*
X134620000Y-165100000D03*
X139700000Y-165100000D03*
X139700000Y-154940000D03*
X137160000Y-167640000D03*
X142240000Y-152400000D03*
X142240000Y-165100000D03*
X149860000Y-162560000D03*
X134620000Y-149860000D03*
X139700000Y-149860000D03*
X147320000Y-165100000D03*
X147320000Y-154940000D03*
X132080000Y-154940000D03*
X147320000Y-157480000D03*
X149860000Y-165100000D03*
X147320000Y-167640000D03*
X149860000Y-157480000D03*
X132080000Y-167640000D03*
X132080000Y-157480000D03*
X134620000Y-167640000D03*
X132080000Y-165100000D03*
X134620000Y-162560000D03*
X132080000Y-149860000D03*
X149860000Y-167640000D03*
X139700000Y-157480000D03*
X144780000Y-165100000D03*
X149860000Y-149860000D03*
X142240000Y-167640000D03*
X139700000Y-167640000D03*
X137160000Y-160020000D03*
X149860000Y-160020000D03*
X144780000Y-149860000D03*
X147320000Y-162560000D03*
X142240000Y-149860000D03*
X134620000Y-152400000D03*
X139700000Y-152400000D03*
X132080000Y-152400000D03*
X149860000Y-152400000D03*
X144780000Y-152400000D03*
X137160000Y-162560000D03*
X144780000Y-160020000D03*
X142240000Y-154940000D03*
X137160000Y-157480000D03*
X149860000Y-154940000D03*
X137160000Y-165100000D03*
X139700000Y-160020000D03*
X147320000Y-149860000D03*
X142240000Y-162560000D03*
X127000000Y-162560000D03*
X124460000Y-165100000D03*
X114300000Y-167640000D03*
X116840000Y-165100000D03*
X124460000Y-167640000D03*
X116840000Y-160020000D03*
X121920000Y-167640000D03*
X114300000Y-165100000D03*
X116840000Y-162560000D03*
X119380000Y-165100000D03*
X121920000Y-162560000D03*
X114300000Y-160020000D03*
X119380000Y-160020000D03*
X127000000Y-165100000D03*
X111760000Y-165100000D03*
X127000000Y-167640000D03*
X129540000Y-167640000D03*
X111760000Y-167640000D03*
X111760000Y-160020000D03*
X119380000Y-167640000D03*
X129540000Y-160020000D03*
X124460000Y-160020000D03*
X121920000Y-160020000D03*
X114300000Y-162560000D03*
X119380000Y-162560000D03*
X111760000Y-162560000D03*
X129540000Y-162560000D03*
X124460000Y-162560000D03*
X121920000Y-165100000D03*
X116840000Y-167640000D03*
X129540000Y-165100000D03*
X127000000Y-160020000D03*
X124460000Y-157480000D03*
X116840000Y-157480000D03*
X114300000Y-157480000D03*
X119380000Y-157480000D03*
X127000000Y-157480000D03*
X111760000Y-157480000D03*
X121920000Y-157480000D03*
X129540000Y-157480000D03*
X127000000Y-154940000D03*
X116840000Y-154940000D03*
X121920000Y-154940000D03*
X114300000Y-154940000D03*
X119380000Y-154940000D03*
X111760000Y-154940000D03*
X129540000Y-154940000D03*
X124460000Y-154940000D03*
X116840000Y-152400000D03*
X114300000Y-152400000D03*
X119380000Y-152400000D03*
X111760000Y-152400000D03*
X129540000Y-152400000D03*
X124460000Y-152400000D03*
X121920000Y-152400000D03*
X127000000Y-152400000D03*
X121920000Y-149860000D03*
X129540000Y-149860000D03*
X114300000Y-149860000D03*
X111760000Y-149860000D03*
X116840000Y-149860000D03*
X119380000Y-149860000D03*
X127000000Y-149860000D03*
X124460000Y-149860000D03*
X140970000Y-121285000D03*
X140970000Y-126285000D03*
D11*
X116205000Y-135890000D03*
D10*
X116205000Y-138390000D03*
D12*
G36*
X143928345Y-63216835D02*
G01*
X143965329Y-63222321D01*
X144001598Y-63231406D01*
X144036802Y-63244002D01*
X144070602Y-63259988D01*
X144102672Y-63279210D01*
X144132704Y-63301483D01*
X144160408Y-63326592D01*
X144185517Y-63354296D01*
X144207790Y-63384328D01*
X144227012Y-63416398D01*
X144242998Y-63450198D01*
X144255594Y-63485402D01*
X144264679Y-63521671D01*
X144270165Y-63558655D01*
X144272000Y-63596000D01*
X144272000Y-74834000D01*
X144270165Y-74871345D01*
X144264679Y-74908329D01*
X144255594Y-74944598D01*
X144242998Y-74979802D01*
X144227012Y-75013602D01*
X144207790Y-75045672D01*
X144185517Y-75075704D01*
X144160408Y-75103408D01*
X144132704Y-75128517D01*
X144102672Y-75150790D01*
X144070602Y-75170012D01*
X144036802Y-75185998D01*
X144001598Y-75198594D01*
X143965329Y-75207679D01*
X143928345Y-75213165D01*
X143891000Y-75215000D01*
X143129000Y-75215000D01*
X143091655Y-75213165D01*
X143054671Y-75207679D01*
X143018402Y-75198594D01*
X142983198Y-75185998D01*
X142949398Y-75170012D01*
X142917328Y-75150790D01*
X142887296Y-75128517D01*
X142859592Y-75103408D01*
X142834483Y-75075704D01*
X142812210Y-75045672D01*
X142792988Y-75013602D01*
X142777002Y-74979802D01*
X142764406Y-74944598D01*
X142755321Y-74908329D01*
X142749835Y-74871345D01*
X142748000Y-74834000D01*
X142748000Y-63596000D01*
X142749835Y-63558655D01*
X142755321Y-63521671D01*
X142764406Y-63485402D01*
X142777002Y-63450198D01*
X142792988Y-63416398D01*
X142812210Y-63384328D01*
X142834483Y-63354296D01*
X142859592Y-63326592D01*
X142887296Y-63301483D01*
X142917328Y-63279210D01*
X142949398Y-63259988D01*
X142983198Y-63244002D01*
X143018402Y-63231406D01*
X143054671Y-63222321D01*
X143091655Y-63216835D01*
X143129000Y-63215000D01*
X143891000Y-63215000D01*
X143928345Y-63216835D01*
X143928345Y-63216835D01*
G37*
D13*
X143510000Y-69215000D03*
D12*
G36*
X156628345Y-63216835D02*
G01*
X156665329Y-63222321D01*
X156701598Y-63231406D01*
X156736802Y-63244002D01*
X156770602Y-63259988D01*
X156802672Y-63279210D01*
X156832704Y-63301483D01*
X156860408Y-63326592D01*
X156885517Y-63354296D01*
X156907790Y-63384328D01*
X156927012Y-63416398D01*
X156942998Y-63450198D01*
X156955594Y-63485402D01*
X156964679Y-63521671D01*
X156970165Y-63558655D01*
X156972000Y-63596000D01*
X156972000Y-74834000D01*
X156970165Y-74871345D01*
X156964679Y-74908329D01*
X156955594Y-74944598D01*
X156942998Y-74979802D01*
X156927012Y-75013602D01*
X156907790Y-75045672D01*
X156885517Y-75075704D01*
X156860408Y-75103408D01*
X156832704Y-75128517D01*
X156802672Y-75150790D01*
X156770602Y-75170012D01*
X156736802Y-75185998D01*
X156701598Y-75198594D01*
X156665329Y-75207679D01*
X156628345Y-75213165D01*
X156591000Y-75215000D01*
X155829000Y-75215000D01*
X155791655Y-75213165D01*
X155754671Y-75207679D01*
X155718402Y-75198594D01*
X155683198Y-75185998D01*
X155649398Y-75170012D01*
X155617328Y-75150790D01*
X155587296Y-75128517D01*
X155559592Y-75103408D01*
X155534483Y-75075704D01*
X155512210Y-75045672D01*
X155492988Y-75013602D01*
X155477002Y-74979802D01*
X155464406Y-74944598D01*
X155455321Y-74908329D01*
X155449835Y-74871345D01*
X155448000Y-74834000D01*
X155448000Y-63596000D01*
X155449835Y-63558655D01*
X155455321Y-63521671D01*
X155464406Y-63485402D01*
X155477002Y-63450198D01*
X155492988Y-63416398D01*
X155512210Y-63384328D01*
X155534483Y-63354296D01*
X155559592Y-63326592D01*
X155587296Y-63301483D01*
X155617328Y-63279210D01*
X155649398Y-63259988D01*
X155683198Y-63244002D01*
X155718402Y-63231406D01*
X155754671Y-63222321D01*
X155791655Y-63216835D01*
X155829000Y-63215000D01*
X156591000Y-63215000D01*
X156628345Y-63216835D01*
X156628345Y-63216835D01*
G37*
D13*
X156210000Y-69215000D03*
D12*
G36*
X138848345Y-63216835D02*
G01*
X138885329Y-63222321D01*
X138921598Y-63231406D01*
X138956802Y-63244002D01*
X138990602Y-63259988D01*
X139022672Y-63279210D01*
X139052704Y-63301483D01*
X139080408Y-63326592D01*
X139105517Y-63354296D01*
X139127790Y-63384328D01*
X139147012Y-63416398D01*
X139162998Y-63450198D01*
X139175594Y-63485402D01*
X139184679Y-63521671D01*
X139190165Y-63558655D01*
X139192000Y-63596000D01*
X139192000Y-74834000D01*
X139190165Y-74871345D01*
X139184679Y-74908329D01*
X139175594Y-74944598D01*
X139162998Y-74979802D01*
X139147012Y-75013602D01*
X139127790Y-75045672D01*
X139105517Y-75075704D01*
X139080408Y-75103408D01*
X139052704Y-75128517D01*
X139022672Y-75150790D01*
X138990602Y-75170012D01*
X138956802Y-75185998D01*
X138921598Y-75198594D01*
X138885329Y-75207679D01*
X138848345Y-75213165D01*
X138811000Y-75215000D01*
X138049000Y-75215000D01*
X138011655Y-75213165D01*
X137974671Y-75207679D01*
X137938402Y-75198594D01*
X137903198Y-75185998D01*
X137869398Y-75170012D01*
X137837328Y-75150790D01*
X137807296Y-75128517D01*
X137779592Y-75103408D01*
X137754483Y-75075704D01*
X137732210Y-75045672D01*
X137712988Y-75013602D01*
X137697002Y-74979802D01*
X137684406Y-74944598D01*
X137675321Y-74908329D01*
X137669835Y-74871345D01*
X137668000Y-74834000D01*
X137668000Y-63596000D01*
X137669835Y-63558655D01*
X137675321Y-63521671D01*
X137684406Y-63485402D01*
X137697002Y-63450198D01*
X137712988Y-63416398D01*
X137732210Y-63384328D01*
X137754483Y-63354296D01*
X137779592Y-63326592D01*
X137807296Y-63301483D01*
X137837328Y-63279210D01*
X137869398Y-63259988D01*
X137903198Y-63244002D01*
X137938402Y-63231406D01*
X137974671Y-63222321D01*
X138011655Y-63216835D01*
X138049000Y-63215000D01*
X138811000Y-63215000D01*
X138848345Y-63216835D01*
X138848345Y-63216835D01*
G37*
D13*
X138430000Y-69215000D03*
D12*
G36*
X141388345Y-63216835D02*
G01*
X141425329Y-63222321D01*
X141461598Y-63231406D01*
X141496802Y-63244002D01*
X141530602Y-63259988D01*
X141562672Y-63279210D01*
X141592704Y-63301483D01*
X141620408Y-63326592D01*
X141645517Y-63354296D01*
X141667790Y-63384328D01*
X141687012Y-63416398D01*
X141702998Y-63450198D01*
X141715594Y-63485402D01*
X141724679Y-63521671D01*
X141730165Y-63558655D01*
X141732000Y-63596000D01*
X141732000Y-74834000D01*
X141730165Y-74871345D01*
X141724679Y-74908329D01*
X141715594Y-74944598D01*
X141702998Y-74979802D01*
X141687012Y-75013602D01*
X141667790Y-75045672D01*
X141645517Y-75075704D01*
X141620408Y-75103408D01*
X141592704Y-75128517D01*
X141562672Y-75150790D01*
X141530602Y-75170012D01*
X141496802Y-75185998D01*
X141461598Y-75198594D01*
X141425329Y-75207679D01*
X141388345Y-75213165D01*
X141351000Y-75215000D01*
X140589000Y-75215000D01*
X140551655Y-75213165D01*
X140514671Y-75207679D01*
X140478402Y-75198594D01*
X140443198Y-75185998D01*
X140409398Y-75170012D01*
X140377328Y-75150790D01*
X140347296Y-75128517D01*
X140319592Y-75103408D01*
X140294483Y-75075704D01*
X140272210Y-75045672D01*
X140252988Y-75013602D01*
X140237002Y-74979802D01*
X140224406Y-74944598D01*
X140215321Y-74908329D01*
X140209835Y-74871345D01*
X140208000Y-74834000D01*
X140208000Y-63596000D01*
X140209835Y-63558655D01*
X140215321Y-63521671D01*
X140224406Y-63485402D01*
X140237002Y-63450198D01*
X140252988Y-63416398D01*
X140272210Y-63384328D01*
X140294483Y-63354296D01*
X140319592Y-63326592D01*
X140347296Y-63301483D01*
X140377328Y-63279210D01*
X140409398Y-63259988D01*
X140443198Y-63244002D01*
X140478402Y-63231406D01*
X140514671Y-63222321D01*
X140551655Y-63216835D01*
X140589000Y-63215000D01*
X141351000Y-63215000D01*
X141388345Y-63216835D01*
X141388345Y-63216835D01*
G37*
D13*
X140970000Y-69215000D03*
D12*
G36*
X136308345Y-63216835D02*
G01*
X136345329Y-63222321D01*
X136381598Y-63231406D01*
X136416802Y-63244002D01*
X136450602Y-63259988D01*
X136482672Y-63279210D01*
X136512704Y-63301483D01*
X136540408Y-63326592D01*
X136565517Y-63354296D01*
X136587790Y-63384328D01*
X136607012Y-63416398D01*
X136622998Y-63450198D01*
X136635594Y-63485402D01*
X136644679Y-63521671D01*
X136650165Y-63558655D01*
X136652000Y-63596000D01*
X136652000Y-74834000D01*
X136650165Y-74871345D01*
X136644679Y-74908329D01*
X136635594Y-74944598D01*
X136622998Y-74979802D01*
X136607012Y-75013602D01*
X136587790Y-75045672D01*
X136565517Y-75075704D01*
X136540408Y-75103408D01*
X136512704Y-75128517D01*
X136482672Y-75150790D01*
X136450602Y-75170012D01*
X136416802Y-75185998D01*
X136381598Y-75198594D01*
X136345329Y-75207679D01*
X136308345Y-75213165D01*
X136271000Y-75215000D01*
X135509000Y-75215000D01*
X135471655Y-75213165D01*
X135434671Y-75207679D01*
X135398402Y-75198594D01*
X135363198Y-75185998D01*
X135329398Y-75170012D01*
X135297328Y-75150790D01*
X135267296Y-75128517D01*
X135239592Y-75103408D01*
X135214483Y-75075704D01*
X135192210Y-75045672D01*
X135172988Y-75013602D01*
X135157002Y-74979802D01*
X135144406Y-74944598D01*
X135135321Y-74908329D01*
X135129835Y-74871345D01*
X135128000Y-74834000D01*
X135128000Y-63596000D01*
X135129835Y-63558655D01*
X135135321Y-63521671D01*
X135144406Y-63485402D01*
X135157002Y-63450198D01*
X135172988Y-63416398D01*
X135192210Y-63384328D01*
X135214483Y-63354296D01*
X135239592Y-63326592D01*
X135267296Y-63301483D01*
X135297328Y-63279210D01*
X135329398Y-63259988D01*
X135363198Y-63244002D01*
X135398402Y-63231406D01*
X135434671Y-63222321D01*
X135471655Y-63216835D01*
X135509000Y-63215000D01*
X136271000Y-63215000D01*
X136308345Y-63216835D01*
X136308345Y-63216835D01*
G37*
D13*
X135890000Y-69215000D03*
D12*
G36*
X131228345Y-63216835D02*
G01*
X131265329Y-63222321D01*
X131301598Y-63231406D01*
X131336802Y-63244002D01*
X131370602Y-63259988D01*
X131402672Y-63279210D01*
X131432704Y-63301483D01*
X131460408Y-63326592D01*
X131485517Y-63354296D01*
X131507790Y-63384328D01*
X131527012Y-63416398D01*
X131542998Y-63450198D01*
X131555594Y-63485402D01*
X131564679Y-63521671D01*
X131570165Y-63558655D01*
X131572000Y-63596000D01*
X131572000Y-74834000D01*
X131570165Y-74871345D01*
X131564679Y-74908329D01*
X131555594Y-74944598D01*
X131542998Y-74979802D01*
X131527012Y-75013602D01*
X131507790Y-75045672D01*
X131485517Y-75075704D01*
X131460408Y-75103408D01*
X131432704Y-75128517D01*
X131402672Y-75150790D01*
X131370602Y-75170012D01*
X131336802Y-75185998D01*
X131301598Y-75198594D01*
X131265329Y-75207679D01*
X131228345Y-75213165D01*
X131191000Y-75215000D01*
X130429000Y-75215000D01*
X130391655Y-75213165D01*
X130354671Y-75207679D01*
X130318402Y-75198594D01*
X130283198Y-75185998D01*
X130249398Y-75170012D01*
X130217328Y-75150790D01*
X130187296Y-75128517D01*
X130159592Y-75103408D01*
X130134483Y-75075704D01*
X130112210Y-75045672D01*
X130092988Y-75013602D01*
X130077002Y-74979802D01*
X130064406Y-74944598D01*
X130055321Y-74908329D01*
X130049835Y-74871345D01*
X130048000Y-74834000D01*
X130048000Y-63596000D01*
X130049835Y-63558655D01*
X130055321Y-63521671D01*
X130064406Y-63485402D01*
X130077002Y-63450198D01*
X130092988Y-63416398D01*
X130112210Y-63384328D01*
X130134483Y-63354296D01*
X130159592Y-63326592D01*
X130187296Y-63301483D01*
X130217328Y-63279210D01*
X130249398Y-63259988D01*
X130283198Y-63244002D01*
X130318402Y-63231406D01*
X130354671Y-63222321D01*
X130391655Y-63216835D01*
X130429000Y-63215000D01*
X131191000Y-63215000D01*
X131228345Y-63216835D01*
X131228345Y-63216835D01*
G37*
D13*
X130810000Y-69215000D03*
D12*
G36*
X121068345Y-63216835D02*
G01*
X121105329Y-63222321D01*
X121141598Y-63231406D01*
X121176802Y-63244002D01*
X121210602Y-63259988D01*
X121242672Y-63279210D01*
X121272704Y-63301483D01*
X121300408Y-63326592D01*
X121325517Y-63354296D01*
X121347790Y-63384328D01*
X121367012Y-63416398D01*
X121382998Y-63450198D01*
X121395594Y-63485402D01*
X121404679Y-63521671D01*
X121410165Y-63558655D01*
X121412000Y-63596000D01*
X121412000Y-74834000D01*
X121410165Y-74871345D01*
X121404679Y-74908329D01*
X121395594Y-74944598D01*
X121382998Y-74979802D01*
X121367012Y-75013602D01*
X121347790Y-75045672D01*
X121325517Y-75075704D01*
X121300408Y-75103408D01*
X121272704Y-75128517D01*
X121242672Y-75150790D01*
X121210602Y-75170012D01*
X121176802Y-75185998D01*
X121141598Y-75198594D01*
X121105329Y-75207679D01*
X121068345Y-75213165D01*
X121031000Y-75215000D01*
X120269000Y-75215000D01*
X120231655Y-75213165D01*
X120194671Y-75207679D01*
X120158402Y-75198594D01*
X120123198Y-75185998D01*
X120089398Y-75170012D01*
X120057328Y-75150790D01*
X120027296Y-75128517D01*
X119999592Y-75103408D01*
X119974483Y-75075704D01*
X119952210Y-75045672D01*
X119932988Y-75013602D01*
X119917002Y-74979802D01*
X119904406Y-74944598D01*
X119895321Y-74908329D01*
X119889835Y-74871345D01*
X119888000Y-74834000D01*
X119888000Y-63596000D01*
X119889835Y-63558655D01*
X119895321Y-63521671D01*
X119904406Y-63485402D01*
X119917002Y-63450198D01*
X119932988Y-63416398D01*
X119952210Y-63384328D01*
X119974483Y-63354296D01*
X119999592Y-63326592D01*
X120027296Y-63301483D01*
X120057328Y-63279210D01*
X120089398Y-63259988D01*
X120123198Y-63244002D01*
X120158402Y-63231406D01*
X120194671Y-63222321D01*
X120231655Y-63216835D01*
X120269000Y-63215000D01*
X121031000Y-63215000D01*
X121068345Y-63216835D01*
X121068345Y-63216835D01*
G37*
D13*
X120650000Y-69215000D03*
D12*
G36*
X126148345Y-63216835D02*
G01*
X126185329Y-63222321D01*
X126221598Y-63231406D01*
X126256802Y-63244002D01*
X126290602Y-63259988D01*
X126322672Y-63279210D01*
X126352704Y-63301483D01*
X126380408Y-63326592D01*
X126405517Y-63354296D01*
X126427790Y-63384328D01*
X126447012Y-63416398D01*
X126462998Y-63450198D01*
X126475594Y-63485402D01*
X126484679Y-63521671D01*
X126490165Y-63558655D01*
X126492000Y-63596000D01*
X126492000Y-74834000D01*
X126490165Y-74871345D01*
X126484679Y-74908329D01*
X126475594Y-74944598D01*
X126462998Y-74979802D01*
X126447012Y-75013602D01*
X126427790Y-75045672D01*
X126405517Y-75075704D01*
X126380408Y-75103408D01*
X126352704Y-75128517D01*
X126322672Y-75150790D01*
X126290602Y-75170012D01*
X126256802Y-75185998D01*
X126221598Y-75198594D01*
X126185329Y-75207679D01*
X126148345Y-75213165D01*
X126111000Y-75215000D01*
X125349000Y-75215000D01*
X125311655Y-75213165D01*
X125274671Y-75207679D01*
X125238402Y-75198594D01*
X125203198Y-75185998D01*
X125169398Y-75170012D01*
X125137328Y-75150790D01*
X125107296Y-75128517D01*
X125079592Y-75103408D01*
X125054483Y-75075704D01*
X125032210Y-75045672D01*
X125012988Y-75013602D01*
X124997002Y-74979802D01*
X124984406Y-74944598D01*
X124975321Y-74908329D01*
X124969835Y-74871345D01*
X124968000Y-74834000D01*
X124968000Y-63596000D01*
X124969835Y-63558655D01*
X124975321Y-63521671D01*
X124984406Y-63485402D01*
X124997002Y-63450198D01*
X125012988Y-63416398D01*
X125032210Y-63384328D01*
X125054483Y-63354296D01*
X125079592Y-63326592D01*
X125107296Y-63301483D01*
X125137328Y-63279210D01*
X125169398Y-63259988D01*
X125203198Y-63244002D01*
X125238402Y-63231406D01*
X125274671Y-63222321D01*
X125311655Y-63216835D01*
X125349000Y-63215000D01*
X126111000Y-63215000D01*
X126148345Y-63216835D01*
X126148345Y-63216835D01*
G37*
D13*
X125730000Y-69215000D03*
D12*
G36*
X123608345Y-63216835D02*
G01*
X123645329Y-63222321D01*
X123681598Y-63231406D01*
X123716802Y-63244002D01*
X123750602Y-63259988D01*
X123782672Y-63279210D01*
X123812704Y-63301483D01*
X123840408Y-63326592D01*
X123865517Y-63354296D01*
X123887790Y-63384328D01*
X123907012Y-63416398D01*
X123922998Y-63450198D01*
X123935594Y-63485402D01*
X123944679Y-63521671D01*
X123950165Y-63558655D01*
X123952000Y-63596000D01*
X123952000Y-74834000D01*
X123950165Y-74871345D01*
X123944679Y-74908329D01*
X123935594Y-74944598D01*
X123922998Y-74979802D01*
X123907012Y-75013602D01*
X123887790Y-75045672D01*
X123865517Y-75075704D01*
X123840408Y-75103408D01*
X123812704Y-75128517D01*
X123782672Y-75150790D01*
X123750602Y-75170012D01*
X123716802Y-75185998D01*
X123681598Y-75198594D01*
X123645329Y-75207679D01*
X123608345Y-75213165D01*
X123571000Y-75215000D01*
X122809000Y-75215000D01*
X122771655Y-75213165D01*
X122734671Y-75207679D01*
X122698402Y-75198594D01*
X122663198Y-75185998D01*
X122629398Y-75170012D01*
X122597328Y-75150790D01*
X122567296Y-75128517D01*
X122539592Y-75103408D01*
X122514483Y-75075704D01*
X122492210Y-75045672D01*
X122472988Y-75013602D01*
X122457002Y-74979802D01*
X122444406Y-74944598D01*
X122435321Y-74908329D01*
X122429835Y-74871345D01*
X122428000Y-74834000D01*
X122428000Y-63596000D01*
X122429835Y-63558655D01*
X122435321Y-63521671D01*
X122444406Y-63485402D01*
X122457002Y-63450198D01*
X122472988Y-63416398D01*
X122492210Y-63384328D01*
X122514483Y-63354296D01*
X122539592Y-63326592D01*
X122567296Y-63301483D01*
X122597328Y-63279210D01*
X122629398Y-63259988D01*
X122663198Y-63244002D01*
X122698402Y-63231406D01*
X122734671Y-63222321D01*
X122771655Y-63216835D01*
X122809000Y-63215000D01*
X123571000Y-63215000D01*
X123608345Y-63216835D01*
X123608345Y-63216835D01*
G37*
D13*
X123190000Y-69215000D03*
D12*
G36*
X133768345Y-63216835D02*
G01*
X133805329Y-63222321D01*
X133841598Y-63231406D01*
X133876802Y-63244002D01*
X133910602Y-63259988D01*
X133942672Y-63279210D01*
X133972704Y-63301483D01*
X134000408Y-63326592D01*
X134025517Y-63354296D01*
X134047790Y-63384328D01*
X134067012Y-63416398D01*
X134082998Y-63450198D01*
X134095594Y-63485402D01*
X134104679Y-63521671D01*
X134110165Y-63558655D01*
X134112000Y-63596000D01*
X134112000Y-74834000D01*
X134110165Y-74871345D01*
X134104679Y-74908329D01*
X134095594Y-74944598D01*
X134082998Y-74979802D01*
X134067012Y-75013602D01*
X134047790Y-75045672D01*
X134025517Y-75075704D01*
X134000408Y-75103408D01*
X133972704Y-75128517D01*
X133942672Y-75150790D01*
X133910602Y-75170012D01*
X133876802Y-75185998D01*
X133841598Y-75198594D01*
X133805329Y-75207679D01*
X133768345Y-75213165D01*
X133731000Y-75215000D01*
X132969000Y-75215000D01*
X132931655Y-75213165D01*
X132894671Y-75207679D01*
X132858402Y-75198594D01*
X132823198Y-75185998D01*
X132789398Y-75170012D01*
X132757328Y-75150790D01*
X132727296Y-75128517D01*
X132699592Y-75103408D01*
X132674483Y-75075704D01*
X132652210Y-75045672D01*
X132632988Y-75013602D01*
X132617002Y-74979802D01*
X132604406Y-74944598D01*
X132595321Y-74908329D01*
X132589835Y-74871345D01*
X132588000Y-74834000D01*
X132588000Y-63596000D01*
X132589835Y-63558655D01*
X132595321Y-63521671D01*
X132604406Y-63485402D01*
X132617002Y-63450198D01*
X132632988Y-63416398D01*
X132652210Y-63384328D01*
X132674483Y-63354296D01*
X132699592Y-63326592D01*
X132727296Y-63301483D01*
X132757328Y-63279210D01*
X132789398Y-63259988D01*
X132823198Y-63244002D01*
X132858402Y-63231406D01*
X132894671Y-63222321D01*
X132931655Y-63216835D01*
X132969000Y-63215000D01*
X133731000Y-63215000D01*
X133768345Y-63216835D01*
X133768345Y-63216835D01*
G37*
D13*
X133350000Y-69215000D03*
D12*
G36*
X128688345Y-63216835D02*
G01*
X128725329Y-63222321D01*
X128761598Y-63231406D01*
X128796802Y-63244002D01*
X128830602Y-63259988D01*
X128862672Y-63279210D01*
X128892704Y-63301483D01*
X128920408Y-63326592D01*
X128945517Y-63354296D01*
X128967790Y-63384328D01*
X128987012Y-63416398D01*
X129002998Y-63450198D01*
X129015594Y-63485402D01*
X129024679Y-63521671D01*
X129030165Y-63558655D01*
X129032000Y-63596000D01*
X129032000Y-74834000D01*
X129030165Y-74871345D01*
X129024679Y-74908329D01*
X129015594Y-74944598D01*
X129002998Y-74979802D01*
X128987012Y-75013602D01*
X128967790Y-75045672D01*
X128945517Y-75075704D01*
X128920408Y-75103408D01*
X128892704Y-75128517D01*
X128862672Y-75150790D01*
X128830602Y-75170012D01*
X128796802Y-75185998D01*
X128761598Y-75198594D01*
X128725329Y-75207679D01*
X128688345Y-75213165D01*
X128651000Y-75215000D01*
X127889000Y-75215000D01*
X127851655Y-75213165D01*
X127814671Y-75207679D01*
X127778402Y-75198594D01*
X127743198Y-75185998D01*
X127709398Y-75170012D01*
X127677328Y-75150790D01*
X127647296Y-75128517D01*
X127619592Y-75103408D01*
X127594483Y-75075704D01*
X127572210Y-75045672D01*
X127552988Y-75013602D01*
X127537002Y-74979802D01*
X127524406Y-74944598D01*
X127515321Y-74908329D01*
X127509835Y-74871345D01*
X127508000Y-74834000D01*
X127508000Y-63596000D01*
X127509835Y-63558655D01*
X127515321Y-63521671D01*
X127524406Y-63485402D01*
X127537002Y-63450198D01*
X127552988Y-63416398D01*
X127572210Y-63384328D01*
X127594483Y-63354296D01*
X127619592Y-63326592D01*
X127647296Y-63301483D01*
X127677328Y-63279210D01*
X127709398Y-63259988D01*
X127743198Y-63244002D01*
X127778402Y-63231406D01*
X127814671Y-63222321D01*
X127851655Y-63216835D01*
X127889000Y-63215000D01*
X128651000Y-63215000D01*
X128688345Y-63216835D01*
X128688345Y-63216835D01*
G37*
D13*
X128270000Y-69215000D03*
D12*
G36*
X146468345Y-63216835D02*
G01*
X146505329Y-63222321D01*
X146541598Y-63231406D01*
X146576802Y-63244002D01*
X146610602Y-63259988D01*
X146642672Y-63279210D01*
X146672704Y-63301483D01*
X146700408Y-63326592D01*
X146725517Y-63354296D01*
X146747790Y-63384328D01*
X146767012Y-63416398D01*
X146782998Y-63450198D01*
X146795594Y-63485402D01*
X146804679Y-63521671D01*
X146810165Y-63558655D01*
X146812000Y-63596000D01*
X146812000Y-74834000D01*
X146810165Y-74871345D01*
X146804679Y-74908329D01*
X146795594Y-74944598D01*
X146782998Y-74979802D01*
X146767012Y-75013602D01*
X146747790Y-75045672D01*
X146725517Y-75075704D01*
X146700408Y-75103408D01*
X146672704Y-75128517D01*
X146642672Y-75150790D01*
X146610602Y-75170012D01*
X146576802Y-75185998D01*
X146541598Y-75198594D01*
X146505329Y-75207679D01*
X146468345Y-75213165D01*
X146431000Y-75215000D01*
X145669000Y-75215000D01*
X145631655Y-75213165D01*
X145594671Y-75207679D01*
X145558402Y-75198594D01*
X145523198Y-75185998D01*
X145489398Y-75170012D01*
X145457328Y-75150790D01*
X145427296Y-75128517D01*
X145399592Y-75103408D01*
X145374483Y-75075704D01*
X145352210Y-75045672D01*
X145332988Y-75013602D01*
X145317002Y-74979802D01*
X145304406Y-74944598D01*
X145295321Y-74908329D01*
X145289835Y-74871345D01*
X145288000Y-74834000D01*
X145288000Y-63596000D01*
X145289835Y-63558655D01*
X145295321Y-63521671D01*
X145304406Y-63485402D01*
X145317002Y-63450198D01*
X145332988Y-63416398D01*
X145352210Y-63384328D01*
X145374483Y-63354296D01*
X145399592Y-63326592D01*
X145427296Y-63301483D01*
X145457328Y-63279210D01*
X145489398Y-63259988D01*
X145523198Y-63244002D01*
X145558402Y-63231406D01*
X145594671Y-63222321D01*
X145631655Y-63216835D01*
X145669000Y-63215000D01*
X146431000Y-63215000D01*
X146468345Y-63216835D01*
X146468345Y-63216835D01*
G37*
D13*
X146050000Y-69215000D03*
D12*
G36*
X166788345Y-63216835D02*
G01*
X166825329Y-63222321D01*
X166861598Y-63231406D01*
X166896802Y-63244002D01*
X166930602Y-63259988D01*
X166962672Y-63279210D01*
X166992704Y-63301483D01*
X167020408Y-63326592D01*
X167045517Y-63354296D01*
X167067790Y-63384328D01*
X167087012Y-63416398D01*
X167102998Y-63450198D01*
X167115594Y-63485402D01*
X167124679Y-63521671D01*
X167130165Y-63558655D01*
X167132000Y-63596000D01*
X167132000Y-74834000D01*
X167130165Y-74871345D01*
X167124679Y-74908329D01*
X167115594Y-74944598D01*
X167102998Y-74979802D01*
X167087012Y-75013602D01*
X167067790Y-75045672D01*
X167045517Y-75075704D01*
X167020408Y-75103408D01*
X166992704Y-75128517D01*
X166962672Y-75150790D01*
X166930602Y-75170012D01*
X166896802Y-75185998D01*
X166861598Y-75198594D01*
X166825329Y-75207679D01*
X166788345Y-75213165D01*
X166751000Y-75215000D01*
X165989000Y-75215000D01*
X165951655Y-75213165D01*
X165914671Y-75207679D01*
X165878402Y-75198594D01*
X165843198Y-75185998D01*
X165809398Y-75170012D01*
X165777328Y-75150790D01*
X165747296Y-75128517D01*
X165719592Y-75103408D01*
X165694483Y-75075704D01*
X165672210Y-75045672D01*
X165652988Y-75013602D01*
X165637002Y-74979802D01*
X165624406Y-74944598D01*
X165615321Y-74908329D01*
X165609835Y-74871345D01*
X165608000Y-74834000D01*
X165608000Y-63596000D01*
X165609835Y-63558655D01*
X165615321Y-63521671D01*
X165624406Y-63485402D01*
X165637002Y-63450198D01*
X165652988Y-63416398D01*
X165672210Y-63384328D01*
X165694483Y-63354296D01*
X165719592Y-63326592D01*
X165747296Y-63301483D01*
X165777328Y-63279210D01*
X165809398Y-63259988D01*
X165843198Y-63244002D01*
X165878402Y-63231406D01*
X165914671Y-63222321D01*
X165951655Y-63216835D01*
X165989000Y-63215000D01*
X166751000Y-63215000D01*
X166788345Y-63216835D01*
X166788345Y-63216835D01*
G37*
D13*
X166370000Y-69215000D03*
D12*
G36*
X171868345Y-63216835D02*
G01*
X171905329Y-63222321D01*
X171941598Y-63231406D01*
X171976802Y-63244002D01*
X172010602Y-63259988D01*
X172042672Y-63279210D01*
X172072704Y-63301483D01*
X172100408Y-63326592D01*
X172125517Y-63354296D01*
X172147790Y-63384328D01*
X172167012Y-63416398D01*
X172182998Y-63450198D01*
X172195594Y-63485402D01*
X172204679Y-63521671D01*
X172210165Y-63558655D01*
X172212000Y-63596000D01*
X172212000Y-74834000D01*
X172210165Y-74871345D01*
X172204679Y-74908329D01*
X172195594Y-74944598D01*
X172182998Y-74979802D01*
X172167012Y-75013602D01*
X172147790Y-75045672D01*
X172125517Y-75075704D01*
X172100408Y-75103408D01*
X172072704Y-75128517D01*
X172042672Y-75150790D01*
X172010602Y-75170012D01*
X171976802Y-75185998D01*
X171941598Y-75198594D01*
X171905329Y-75207679D01*
X171868345Y-75213165D01*
X171831000Y-75215000D01*
X171069000Y-75215000D01*
X171031655Y-75213165D01*
X170994671Y-75207679D01*
X170958402Y-75198594D01*
X170923198Y-75185998D01*
X170889398Y-75170012D01*
X170857328Y-75150790D01*
X170827296Y-75128517D01*
X170799592Y-75103408D01*
X170774483Y-75075704D01*
X170752210Y-75045672D01*
X170732988Y-75013602D01*
X170717002Y-74979802D01*
X170704406Y-74944598D01*
X170695321Y-74908329D01*
X170689835Y-74871345D01*
X170688000Y-74834000D01*
X170688000Y-63596000D01*
X170689835Y-63558655D01*
X170695321Y-63521671D01*
X170704406Y-63485402D01*
X170717002Y-63450198D01*
X170732988Y-63416398D01*
X170752210Y-63384328D01*
X170774483Y-63354296D01*
X170799592Y-63326592D01*
X170827296Y-63301483D01*
X170857328Y-63279210D01*
X170889398Y-63259988D01*
X170923198Y-63244002D01*
X170958402Y-63231406D01*
X170994671Y-63222321D01*
X171031655Y-63216835D01*
X171069000Y-63215000D01*
X171831000Y-63215000D01*
X171868345Y-63216835D01*
X171868345Y-63216835D01*
G37*
D13*
X171450000Y-69215000D03*
D12*
G36*
X161708345Y-63216835D02*
G01*
X161745329Y-63222321D01*
X161781598Y-63231406D01*
X161816802Y-63244002D01*
X161850602Y-63259988D01*
X161882672Y-63279210D01*
X161912704Y-63301483D01*
X161940408Y-63326592D01*
X161965517Y-63354296D01*
X161987790Y-63384328D01*
X162007012Y-63416398D01*
X162022998Y-63450198D01*
X162035594Y-63485402D01*
X162044679Y-63521671D01*
X162050165Y-63558655D01*
X162052000Y-63596000D01*
X162052000Y-74834000D01*
X162050165Y-74871345D01*
X162044679Y-74908329D01*
X162035594Y-74944598D01*
X162022998Y-74979802D01*
X162007012Y-75013602D01*
X161987790Y-75045672D01*
X161965517Y-75075704D01*
X161940408Y-75103408D01*
X161912704Y-75128517D01*
X161882672Y-75150790D01*
X161850602Y-75170012D01*
X161816802Y-75185998D01*
X161781598Y-75198594D01*
X161745329Y-75207679D01*
X161708345Y-75213165D01*
X161671000Y-75215000D01*
X160909000Y-75215000D01*
X160871655Y-75213165D01*
X160834671Y-75207679D01*
X160798402Y-75198594D01*
X160763198Y-75185998D01*
X160729398Y-75170012D01*
X160697328Y-75150790D01*
X160667296Y-75128517D01*
X160639592Y-75103408D01*
X160614483Y-75075704D01*
X160592210Y-75045672D01*
X160572988Y-75013602D01*
X160557002Y-74979802D01*
X160544406Y-74944598D01*
X160535321Y-74908329D01*
X160529835Y-74871345D01*
X160528000Y-74834000D01*
X160528000Y-63596000D01*
X160529835Y-63558655D01*
X160535321Y-63521671D01*
X160544406Y-63485402D01*
X160557002Y-63450198D01*
X160572988Y-63416398D01*
X160592210Y-63384328D01*
X160614483Y-63354296D01*
X160639592Y-63326592D01*
X160667296Y-63301483D01*
X160697328Y-63279210D01*
X160729398Y-63259988D01*
X160763198Y-63244002D01*
X160798402Y-63231406D01*
X160834671Y-63222321D01*
X160871655Y-63216835D01*
X160909000Y-63215000D01*
X161671000Y-63215000D01*
X161708345Y-63216835D01*
X161708345Y-63216835D01*
G37*
D13*
X161290000Y-69215000D03*
D12*
G36*
X164248345Y-63216835D02*
G01*
X164285329Y-63222321D01*
X164321598Y-63231406D01*
X164356802Y-63244002D01*
X164390602Y-63259988D01*
X164422672Y-63279210D01*
X164452704Y-63301483D01*
X164480408Y-63326592D01*
X164505517Y-63354296D01*
X164527790Y-63384328D01*
X164547012Y-63416398D01*
X164562998Y-63450198D01*
X164575594Y-63485402D01*
X164584679Y-63521671D01*
X164590165Y-63558655D01*
X164592000Y-63596000D01*
X164592000Y-74834000D01*
X164590165Y-74871345D01*
X164584679Y-74908329D01*
X164575594Y-74944598D01*
X164562998Y-74979802D01*
X164547012Y-75013602D01*
X164527790Y-75045672D01*
X164505517Y-75075704D01*
X164480408Y-75103408D01*
X164452704Y-75128517D01*
X164422672Y-75150790D01*
X164390602Y-75170012D01*
X164356802Y-75185998D01*
X164321598Y-75198594D01*
X164285329Y-75207679D01*
X164248345Y-75213165D01*
X164211000Y-75215000D01*
X163449000Y-75215000D01*
X163411655Y-75213165D01*
X163374671Y-75207679D01*
X163338402Y-75198594D01*
X163303198Y-75185998D01*
X163269398Y-75170012D01*
X163237328Y-75150790D01*
X163207296Y-75128517D01*
X163179592Y-75103408D01*
X163154483Y-75075704D01*
X163132210Y-75045672D01*
X163112988Y-75013602D01*
X163097002Y-74979802D01*
X163084406Y-74944598D01*
X163075321Y-74908329D01*
X163069835Y-74871345D01*
X163068000Y-74834000D01*
X163068000Y-63596000D01*
X163069835Y-63558655D01*
X163075321Y-63521671D01*
X163084406Y-63485402D01*
X163097002Y-63450198D01*
X163112988Y-63416398D01*
X163132210Y-63384328D01*
X163154483Y-63354296D01*
X163179592Y-63326592D01*
X163207296Y-63301483D01*
X163237328Y-63279210D01*
X163269398Y-63259988D01*
X163303198Y-63244002D01*
X163338402Y-63231406D01*
X163374671Y-63222321D01*
X163411655Y-63216835D01*
X163449000Y-63215000D01*
X164211000Y-63215000D01*
X164248345Y-63216835D01*
X164248345Y-63216835D01*
G37*
D13*
X163830000Y-69215000D03*
D12*
G36*
X159168345Y-63216835D02*
G01*
X159205329Y-63222321D01*
X159241598Y-63231406D01*
X159276802Y-63244002D01*
X159310602Y-63259988D01*
X159342672Y-63279210D01*
X159372704Y-63301483D01*
X159400408Y-63326592D01*
X159425517Y-63354296D01*
X159447790Y-63384328D01*
X159467012Y-63416398D01*
X159482998Y-63450198D01*
X159495594Y-63485402D01*
X159504679Y-63521671D01*
X159510165Y-63558655D01*
X159512000Y-63596000D01*
X159512000Y-74834000D01*
X159510165Y-74871345D01*
X159504679Y-74908329D01*
X159495594Y-74944598D01*
X159482998Y-74979802D01*
X159467012Y-75013602D01*
X159447790Y-75045672D01*
X159425517Y-75075704D01*
X159400408Y-75103408D01*
X159372704Y-75128517D01*
X159342672Y-75150790D01*
X159310602Y-75170012D01*
X159276802Y-75185998D01*
X159241598Y-75198594D01*
X159205329Y-75207679D01*
X159168345Y-75213165D01*
X159131000Y-75215000D01*
X158369000Y-75215000D01*
X158331655Y-75213165D01*
X158294671Y-75207679D01*
X158258402Y-75198594D01*
X158223198Y-75185998D01*
X158189398Y-75170012D01*
X158157328Y-75150790D01*
X158127296Y-75128517D01*
X158099592Y-75103408D01*
X158074483Y-75075704D01*
X158052210Y-75045672D01*
X158032988Y-75013602D01*
X158017002Y-74979802D01*
X158004406Y-74944598D01*
X157995321Y-74908329D01*
X157989835Y-74871345D01*
X157988000Y-74834000D01*
X157988000Y-63596000D01*
X157989835Y-63558655D01*
X157995321Y-63521671D01*
X158004406Y-63485402D01*
X158017002Y-63450198D01*
X158032988Y-63416398D01*
X158052210Y-63384328D01*
X158074483Y-63354296D01*
X158099592Y-63326592D01*
X158127296Y-63301483D01*
X158157328Y-63279210D01*
X158189398Y-63259988D01*
X158223198Y-63244002D01*
X158258402Y-63231406D01*
X158294671Y-63222321D01*
X158331655Y-63216835D01*
X158369000Y-63215000D01*
X159131000Y-63215000D01*
X159168345Y-63216835D01*
X159168345Y-63216835D01*
G37*
D13*
X158750000Y-69215000D03*
D12*
G36*
X169328345Y-63216835D02*
G01*
X169365329Y-63222321D01*
X169401598Y-63231406D01*
X169436802Y-63244002D01*
X169470602Y-63259988D01*
X169502672Y-63279210D01*
X169532704Y-63301483D01*
X169560408Y-63326592D01*
X169585517Y-63354296D01*
X169607790Y-63384328D01*
X169627012Y-63416398D01*
X169642998Y-63450198D01*
X169655594Y-63485402D01*
X169664679Y-63521671D01*
X169670165Y-63558655D01*
X169672000Y-63596000D01*
X169672000Y-74834000D01*
X169670165Y-74871345D01*
X169664679Y-74908329D01*
X169655594Y-74944598D01*
X169642998Y-74979802D01*
X169627012Y-75013602D01*
X169607790Y-75045672D01*
X169585517Y-75075704D01*
X169560408Y-75103408D01*
X169532704Y-75128517D01*
X169502672Y-75150790D01*
X169470602Y-75170012D01*
X169436802Y-75185998D01*
X169401598Y-75198594D01*
X169365329Y-75207679D01*
X169328345Y-75213165D01*
X169291000Y-75215000D01*
X168529000Y-75215000D01*
X168491655Y-75213165D01*
X168454671Y-75207679D01*
X168418402Y-75198594D01*
X168383198Y-75185998D01*
X168349398Y-75170012D01*
X168317328Y-75150790D01*
X168287296Y-75128517D01*
X168259592Y-75103408D01*
X168234483Y-75075704D01*
X168212210Y-75045672D01*
X168192988Y-75013602D01*
X168177002Y-74979802D01*
X168164406Y-74944598D01*
X168155321Y-74908329D01*
X168149835Y-74871345D01*
X168148000Y-74834000D01*
X168148000Y-63596000D01*
X168149835Y-63558655D01*
X168155321Y-63521671D01*
X168164406Y-63485402D01*
X168177002Y-63450198D01*
X168192988Y-63416398D01*
X168212210Y-63384328D01*
X168234483Y-63354296D01*
X168259592Y-63326592D01*
X168287296Y-63301483D01*
X168317328Y-63279210D01*
X168349398Y-63259988D01*
X168383198Y-63244002D01*
X168418402Y-63231406D01*
X168454671Y-63222321D01*
X168491655Y-63216835D01*
X168529000Y-63215000D01*
X169291000Y-63215000D01*
X169328345Y-63216835D01*
X169328345Y-63216835D01*
G37*
D13*
X168910000Y-69215000D03*
D12*
G36*
X174408345Y-63216835D02*
G01*
X174445329Y-63222321D01*
X174481598Y-63231406D01*
X174516802Y-63244002D01*
X174550602Y-63259988D01*
X174582672Y-63279210D01*
X174612704Y-63301483D01*
X174640408Y-63326592D01*
X174665517Y-63354296D01*
X174687790Y-63384328D01*
X174707012Y-63416398D01*
X174722998Y-63450198D01*
X174735594Y-63485402D01*
X174744679Y-63521671D01*
X174750165Y-63558655D01*
X174752000Y-63596000D01*
X174752000Y-74834000D01*
X174750165Y-74871345D01*
X174744679Y-74908329D01*
X174735594Y-74944598D01*
X174722998Y-74979802D01*
X174707012Y-75013602D01*
X174687790Y-75045672D01*
X174665517Y-75075704D01*
X174640408Y-75103408D01*
X174612704Y-75128517D01*
X174582672Y-75150790D01*
X174550602Y-75170012D01*
X174516802Y-75185998D01*
X174481598Y-75198594D01*
X174445329Y-75207679D01*
X174408345Y-75213165D01*
X174371000Y-75215000D01*
X173609000Y-75215000D01*
X173571655Y-75213165D01*
X173534671Y-75207679D01*
X173498402Y-75198594D01*
X173463198Y-75185998D01*
X173429398Y-75170012D01*
X173397328Y-75150790D01*
X173367296Y-75128517D01*
X173339592Y-75103408D01*
X173314483Y-75075704D01*
X173292210Y-75045672D01*
X173272988Y-75013602D01*
X173257002Y-74979802D01*
X173244406Y-74944598D01*
X173235321Y-74908329D01*
X173229835Y-74871345D01*
X173228000Y-74834000D01*
X173228000Y-63596000D01*
X173229835Y-63558655D01*
X173235321Y-63521671D01*
X173244406Y-63485402D01*
X173257002Y-63450198D01*
X173272988Y-63416398D01*
X173292210Y-63384328D01*
X173314483Y-63354296D01*
X173339592Y-63326592D01*
X173367296Y-63301483D01*
X173397328Y-63279210D01*
X173429398Y-63259988D01*
X173463198Y-63244002D01*
X173498402Y-63231406D01*
X173534671Y-63222321D01*
X173571655Y-63216835D01*
X173609000Y-63215000D01*
X174371000Y-63215000D01*
X174408345Y-63216835D01*
X174408345Y-63216835D01*
G37*
D13*
X173990000Y-69215000D03*
D12*
G36*
X179488345Y-63216835D02*
G01*
X179525329Y-63222321D01*
X179561598Y-63231406D01*
X179596802Y-63244002D01*
X179630602Y-63259988D01*
X179662672Y-63279210D01*
X179692704Y-63301483D01*
X179720408Y-63326592D01*
X179745517Y-63354296D01*
X179767790Y-63384328D01*
X179787012Y-63416398D01*
X179802998Y-63450198D01*
X179815594Y-63485402D01*
X179824679Y-63521671D01*
X179830165Y-63558655D01*
X179832000Y-63596000D01*
X179832000Y-74834000D01*
X179830165Y-74871345D01*
X179824679Y-74908329D01*
X179815594Y-74944598D01*
X179802998Y-74979802D01*
X179787012Y-75013602D01*
X179767790Y-75045672D01*
X179745517Y-75075704D01*
X179720408Y-75103408D01*
X179692704Y-75128517D01*
X179662672Y-75150790D01*
X179630602Y-75170012D01*
X179596802Y-75185998D01*
X179561598Y-75198594D01*
X179525329Y-75207679D01*
X179488345Y-75213165D01*
X179451000Y-75215000D01*
X178689000Y-75215000D01*
X178651655Y-75213165D01*
X178614671Y-75207679D01*
X178578402Y-75198594D01*
X178543198Y-75185998D01*
X178509398Y-75170012D01*
X178477328Y-75150790D01*
X178447296Y-75128517D01*
X178419592Y-75103408D01*
X178394483Y-75075704D01*
X178372210Y-75045672D01*
X178352988Y-75013602D01*
X178337002Y-74979802D01*
X178324406Y-74944598D01*
X178315321Y-74908329D01*
X178309835Y-74871345D01*
X178308000Y-74834000D01*
X178308000Y-63596000D01*
X178309835Y-63558655D01*
X178315321Y-63521671D01*
X178324406Y-63485402D01*
X178337002Y-63450198D01*
X178352988Y-63416398D01*
X178372210Y-63384328D01*
X178394483Y-63354296D01*
X178419592Y-63326592D01*
X178447296Y-63301483D01*
X178477328Y-63279210D01*
X178509398Y-63259988D01*
X178543198Y-63244002D01*
X178578402Y-63231406D01*
X178614671Y-63222321D01*
X178651655Y-63216835D01*
X178689000Y-63215000D01*
X179451000Y-63215000D01*
X179488345Y-63216835D01*
X179488345Y-63216835D01*
G37*
D13*
X179070000Y-69215000D03*
D12*
G36*
X176948345Y-63216835D02*
G01*
X176985329Y-63222321D01*
X177021598Y-63231406D01*
X177056802Y-63244002D01*
X177090602Y-63259988D01*
X177122672Y-63279210D01*
X177152704Y-63301483D01*
X177180408Y-63326592D01*
X177205517Y-63354296D01*
X177227790Y-63384328D01*
X177247012Y-63416398D01*
X177262998Y-63450198D01*
X177275594Y-63485402D01*
X177284679Y-63521671D01*
X177290165Y-63558655D01*
X177292000Y-63596000D01*
X177292000Y-74834000D01*
X177290165Y-74871345D01*
X177284679Y-74908329D01*
X177275594Y-74944598D01*
X177262998Y-74979802D01*
X177247012Y-75013602D01*
X177227790Y-75045672D01*
X177205517Y-75075704D01*
X177180408Y-75103408D01*
X177152704Y-75128517D01*
X177122672Y-75150790D01*
X177090602Y-75170012D01*
X177056802Y-75185998D01*
X177021598Y-75198594D01*
X176985329Y-75207679D01*
X176948345Y-75213165D01*
X176911000Y-75215000D01*
X176149000Y-75215000D01*
X176111655Y-75213165D01*
X176074671Y-75207679D01*
X176038402Y-75198594D01*
X176003198Y-75185998D01*
X175969398Y-75170012D01*
X175937328Y-75150790D01*
X175907296Y-75128517D01*
X175879592Y-75103408D01*
X175854483Y-75075704D01*
X175832210Y-75045672D01*
X175812988Y-75013602D01*
X175797002Y-74979802D01*
X175784406Y-74944598D01*
X175775321Y-74908329D01*
X175769835Y-74871345D01*
X175768000Y-74834000D01*
X175768000Y-63596000D01*
X175769835Y-63558655D01*
X175775321Y-63521671D01*
X175784406Y-63485402D01*
X175797002Y-63450198D01*
X175812988Y-63416398D01*
X175832210Y-63384328D01*
X175854483Y-63354296D01*
X175879592Y-63326592D01*
X175907296Y-63301483D01*
X175937328Y-63279210D01*
X175969398Y-63259988D01*
X176003198Y-63244002D01*
X176038402Y-63231406D01*
X176074671Y-63222321D01*
X176111655Y-63216835D01*
X176149000Y-63215000D01*
X176911000Y-63215000D01*
X176948345Y-63216835D01*
X176948345Y-63216835D01*
G37*
D13*
X176530000Y-69215000D03*
D12*
G36*
X182028345Y-63216835D02*
G01*
X182065329Y-63222321D01*
X182101598Y-63231406D01*
X182136802Y-63244002D01*
X182170602Y-63259988D01*
X182202672Y-63279210D01*
X182232704Y-63301483D01*
X182260408Y-63326592D01*
X182285517Y-63354296D01*
X182307790Y-63384328D01*
X182327012Y-63416398D01*
X182342998Y-63450198D01*
X182355594Y-63485402D01*
X182364679Y-63521671D01*
X182370165Y-63558655D01*
X182372000Y-63596000D01*
X182372000Y-74834000D01*
X182370165Y-74871345D01*
X182364679Y-74908329D01*
X182355594Y-74944598D01*
X182342998Y-74979802D01*
X182327012Y-75013602D01*
X182307790Y-75045672D01*
X182285517Y-75075704D01*
X182260408Y-75103408D01*
X182232704Y-75128517D01*
X182202672Y-75150790D01*
X182170602Y-75170012D01*
X182136802Y-75185998D01*
X182101598Y-75198594D01*
X182065329Y-75207679D01*
X182028345Y-75213165D01*
X181991000Y-75215000D01*
X181229000Y-75215000D01*
X181191655Y-75213165D01*
X181154671Y-75207679D01*
X181118402Y-75198594D01*
X181083198Y-75185998D01*
X181049398Y-75170012D01*
X181017328Y-75150790D01*
X180987296Y-75128517D01*
X180959592Y-75103408D01*
X180934483Y-75075704D01*
X180912210Y-75045672D01*
X180892988Y-75013602D01*
X180877002Y-74979802D01*
X180864406Y-74944598D01*
X180855321Y-74908329D01*
X180849835Y-74871345D01*
X180848000Y-74834000D01*
X180848000Y-63596000D01*
X180849835Y-63558655D01*
X180855321Y-63521671D01*
X180864406Y-63485402D01*
X180877002Y-63450198D01*
X180892988Y-63416398D01*
X180912210Y-63384328D01*
X180934483Y-63354296D01*
X180959592Y-63326592D01*
X180987296Y-63301483D01*
X181017328Y-63279210D01*
X181049398Y-63259988D01*
X181083198Y-63244002D01*
X181118402Y-63231406D01*
X181154671Y-63222321D01*
X181191655Y-63216835D01*
X181229000Y-63215000D01*
X181991000Y-63215000D01*
X182028345Y-63216835D01*
X182028345Y-63216835D01*
G37*
D13*
X181610000Y-69215000D03*
D14*
X121920000Y-140970000D03*
D15*
X137160000Y-133350000D03*
X124460000Y-140970000D03*
X134620000Y-133350000D03*
X127000000Y-140970000D03*
X132080000Y-133350000D03*
X129540000Y-140970000D03*
X129540000Y-133350000D03*
X132080000Y-140970000D03*
X127000000Y-133350000D03*
X134620000Y-140970000D03*
X124460000Y-133350000D03*
X137160000Y-140970000D03*
X121920000Y-133350000D03*
D14*
X127000000Y-109220000D03*
D15*
X175260000Y-93980000D03*
X129540000Y-109220000D03*
X172720000Y-93980000D03*
X132080000Y-109220000D03*
X170180000Y-93980000D03*
X134620000Y-109220000D03*
X167640000Y-93980000D03*
X137160000Y-109220000D03*
X165100000Y-93980000D03*
X139700000Y-109220000D03*
X162560000Y-93980000D03*
X142240000Y-109220000D03*
X160020000Y-93980000D03*
X144780000Y-109220000D03*
X157480000Y-93980000D03*
X147320000Y-109220000D03*
X154940000Y-93980000D03*
X149860000Y-109220000D03*
X152400000Y-93980000D03*
X152400000Y-109220000D03*
X149860000Y-93980000D03*
X154940000Y-109220000D03*
X147320000Y-93980000D03*
X157480000Y-109220000D03*
X144780000Y-93980000D03*
X160020000Y-109220000D03*
X142240000Y-93980000D03*
X162560000Y-109220000D03*
X139700000Y-93980000D03*
X165100000Y-109220000D03*
X137160000Y-93980000D03*
X167640000Y-109220000D03*
X134620000Y-93980000D03*
X170180000Y-109220000D03*
X132080000Y-93980000D03*
X172720000Y-109220000D03*
X129540000Y-93980000D03*
X175260000Y-109220000D03*
X127000000Y-93980000D03*
X119380000Y-119380000D03*
X137160000Y-127000000D03*
X121920000Y-119380000D03*
X134620000Y-127000000D03*
X124460000Y-119380000D03*
X132080000Y-127000000D03*
X127000000Y-119380000D03*
X129540000Y-127000000D03*
X129540000Y-119380000D03*
X127000000Y-127000000D03*
X132080000Y-119380000D03*
X124460000Y-127000000D03*
X134620000Y-119380000D03*
X121920000Y-127000000D03*
X137160000Y-119380000D03*
D14*
X119380000Y-127000000D03*
D15*
X144780000Y-119380000D03*
X172720000Y-134620000D03*
X147320000Y-119380000D03*
X170180000Y-134620000D03*
X149860000Y-119380000D03*
X167640000Y-134620000D03*
X152400000Y-119380000D03*
X165100000Y-134620000D03*
X154940000Y-119380000D03*
X162560000Y-134620000D03*
X157480000Y-119380000D03*
X160020000Y-134620000D03*
X160020000Y-119380000D03*
X157480000Y-134620000D03*
X162560000Y-119380000D03*
X154940000Y-134620000D03*
X165100000Y-119380000D03*
X152400000Y-134620000D03*
X167640000Y-119380000D03*
X149860000Y-134620000D03*
X170180000Y-119380000D03*
X147320000Y-134620000D03*
X172720000Y-119380000D03*
D14*
X144780000Y-134620000D03*
D16*
X146050000Y-75565000D03*
X158750000Y-75565000D03*
X163830000Y-75565000D03*
X166370000Y-75565000D03*
X168910000Y-75565000D03*
X171450000Y-75565000D03*
X138430000Y-75565000D03*
X143510000Y-75565000D03*
X120650000Y-75565000D03*
X123190000Y-109220000D03*
X140970000Y-75565000D03*
X135890000Y-75565000D03*
X133350000Y-75565000D03*
X130810000Y-75565000D03*
X176530000Y-75565000D03*
X171450000Y-78740000D03*
X173990000Y-75565000D03*
X161290000Y-75565000D03*
X173990000Y-81280000D03*
X156210000Y-75565000D03*
D17*
X125730000Y-69215000D02*
X125730000Y-75565000D01*
X128270000Y-75565000D02*
X128270000Y-69215000D01*
D18*
X127000000Y-75565000D02*
X127000000Y-89535000D01*
D17*
X127000000Y-75565000D02*
X128270000Y-75565000D01*
X125730000Y-75565000D02*
X127000000Y-75565000D01*
D18*
X127000000Y-89535000D02*
X123825000Y-92710000D01*
D17*
X127000000Y-93980000D02*
X124460000Y-93980000D01*
X124460000Y-93980000D02*
X123825000Y-94615000D01*
D18*
X123825000Y-92710000D02*
X123825000Y-94615000D01*
X123825000Y-94615000D02*
X123825000Y-102870000D01*
X123825000Y-102870000D02*
X123825000Y-103505000D01*
X123825000Y-103505000D02*
X116205000Y-111125000D01*
X116205000Y-130175000D02*
X116205000Y-130810000D01*
X116205000Y-130810000D02*
X118745000Y-133350000D01*
D17*
X118745000Y-133350000D02*
X121920000Y-133350000D01*
X116840000Y-119380000D02*
X116205000Y-120015000D01*
X119380000Y-119380000D02*
X116840000Y-119380000D01*
D18*
X116205000Y-120015000D02*
X116205000Y-130175000D01*
X116205000Y-114300000D02*
X139065000Y-114300000D01*
X116205000Y-114300000D02*
X116205000Y-120015000D01*
X116205000Y-111125000D02*
X116205000Y-114300000D01*
X139065000Y-114300000D02*
X141605000Y-116840000D01*
X141605000Y-116840000D02*
X141605000Y-119380000D01*
D17*
X144780000Y-119380000D02*
X141605000Y-119380000D01*
D19*
X144780000Y-121080000D02*
X144780000Y-119380000D01*
X151560000Y-121920000D02*
X145620000Y-121920000D01*
X145620000Y-121920000D02*
X144780000Y-121080000D01*
X152400000Y-119380000D02*
X152400000Y-121080000D01*
X152400000Y-121080000D02*
X151560000Y-121920000D01*
D18*
X116205000Y-130175000D02*
X116205000Y-135890000D01*
X140970000Y-121285000D02*
X141605000Y-120650000D01*
X141605000Y-120650000D02*
X141605000Y-119380000D01*
D17*
X179070000Y-69215000D02*
X179070000Y-75565000D01*
X181610000Y-69215000D02*
X181610000Y-75565000D01*
X180340000Y-75565000D02*
X181610000Y-75565000D01*
X179070000Y-75565000D02*
X180340000Y-75565000D01*
X172720000Y-134620000D02*
X173990000Y-134620000D01*
D18*
X175895000Y-134620000D02*
X173990000Y-134620000D01*
D17*
X175260000Y-109220000D02*
X177165000Y-109220000D01*
D19*
X124460000Y-121080000D02*
X124460000Y-119380000D01*
X124460000Y-122657500D02*
X124460000Y-121080000D01*
X121920000Y-127000000D02*
X121920000Y-125197500D01*
X121920000Y-125197500D02*
X124460000Y-122657500D01*
D18*
X175895000Y-134620000D02*
X175895000Y-138430000D01*
X175895000Y-138430000D02*
X173355000Y-140970000D01*
X173355000Y-140970000D02*
X139700000Y-140970000D01*
D17*
X139700000Y-140970000D02*
X137160000Y-140970000D01*
D18*
X178435000Y-132080000D02*
X175895000Y-134620000D01*
X178435000Y-108585000D02*
X178435000Y-132080000D01*
X178435000Y-109220000D02*
X177165000Y-109220000D01*
X180340000Y-75565000D02*
X180340000Y-94615000D01*
X178435000Y-96520000D02*
X178435000Y-109220000D01*
X180340000Y-94615000D02*
X178435000Y-96520000D01*
X139700000Y-140970000D02*
X139700000Y-127000000D01*
D17*
X139700000Y-127000000D02*
X137160000Y-127000000D01*
D18*
X139700000Y-144780000D02*
X139700000Y-140970000D01*
X138430000Y-146050000D02*
X139700000Y-144780000D01*
X118745000Y-146050000D02*
X138430000Y-146050000D01*
X116205000Y-138390000D02*
X116205000Y-143510000D01*
X116205000Y-143510000D02*
X118745000Y-146050000D01*
X139700000Y-126423630D02*
X139700000Y-127000000D01*
X139838630Y-126285000D02*
X139700000Y-126423630D01*
X140970000Y-126285000D02*
X139838630Y-126285000D01*
D19*
X146050000Y-69215000D02*
X146050000Y-75565000D01*
X158750000Y-69215000D02*
X158750000Y-75565000D01*
X163830000Y-69215000D02*
X163830000Y-75565000D01*
X166370000Y-69215000D02*
X166370000Y-75565000D01*
X168910000Y-69215000D02*
X168910000Y-75565000D01*
X171450000Y-69215000D02*
X171450000Y-75565000D01*
X138430000Y-69215000D02*
X138430000Y-75565000D01*
X143510000Y-69215000D02*
X143510000Y-75565000D01*
D17*
X120650000Y-69215000D02*
X120650000Y-75565000D01*
X123190000Y-109220000D02*
X127000000Y-109220000D01*
D19*
X140970000Y-69215000D02*
X140970000Y-75565000D01*
X175260000Y-90805000D02*
X175260000Y-93980000D01*
X167005000Y-82550000D02*
X175260000Y-90805000D01*
X146685000Y-82550000D02*
X167005000Y-82550000D01*
X140970000Y-75565000D02*
X140970000Y-76835000D01*
X140970000Y-76835000D02*
X146685000Y-82550000D01*
X135890000Y-69215000D02*
X135890000Y-75565000D01*
X135890000Y-76835000D02*
X135890000Y-75565000D01*
X142875000Y-83820000D02*
X135890000Y-76835000D01*
X172720000Y-93980000D02*
X172720000Y-90805000D01*
X165735000Y-83820000D02*
X142875000Y-83820000D01*
X172720000Y-90805000D02*
X165735000Y-83820000D01*
X133350000Y-69215000D02*
X133350000Y-75565000D01*
X170180000Y-90487500D02*
X170180000Y-93980000D01*
X141605000Y-85090000D02*
X164782500Y-85090000D01*
X164782500Y-85090000D02*
X170180000Y-90487500D01*
X133350000Y-75565000D02*
X133350000Y-76835000D01*
X133350000Y-76835000D02*
X141605000Y-85090000D01*
X130810000Y-69215000D02*
X130810000Y-75565000D01*
X163830000Y-86360000D02*
X167640000Y-90170000D01*
X140335000Y-86360000D02*
X163830000Y-86360000D01*
X167640000Y-90170000D02*
X167640000Y-93980000D01*
X130810000Y-75565000D02*
X130810000Y-76835000D01*
X130810000Y-76835000D02*
X140335000Y-86360000D01*
X176530000Y-69215000D02*
X176530000Y-75565000D01*
X172015685Y-78740000D02*
X171450000Y-78740000D01*
X173990000Y-78740000D02*
X172015685Y-78740000D01*
X176530000Y-75565000D02*
X176530000Y-76200000D01*
X176530000Y-76200000D02*
X173990000Y-78740000D01*
X173990000Y-69215000D02*
X173990000Y-75565000D01*
X161290000Y-69215000D02*
X161290000Y-75565000D01*
X170815000Y-81280000D02*
X173990000Y-81280000D01*
X164465000Y-80010000D02*
X169545000Y-80010000D01*
X169545000Y-80010000D02*
X170815000Y-81280000D01*
X161290000Y-75565000D02*
X161290000Y-76835000D01*
X161290000Y-76835000D02*
X164465000Y-80010000D01*
X156210000Y-69215000D02*
X156210000Y-75565000D01*
X172720000Y-99695000D02*
X172720000Y-109220000D01*
X156210000Y-75565000D02*
X156210000Y-76835000D01*
X168275000Y-81280000D02*
X176530000Y-89535000D01*
X160655000Y-81280000D02*
X168275000Y-81280000D01*
X156210000Y-76835000D02*
X160655000Y-81280000D01*
X176530000Y-89535000D02*
X176530000Y-95885000D01*
X176530000Y-95885000D02*
X172720000Y-99695000D01*
X147320000Y-114935000D02*
X147320000Y-119380000D01*
X148590000Y-113665000D02*
X147320000Y-114935000D01*
X148590000Y-106045000D02*
X148590000Y-113665000D01*
X156210000Y-98425000D02*
X148590000Y-106045000D01*
X156210000Y-95250000D02*
X156210000Y-98425000D01*
X165100000Y-91440000D02*
X163830000Y-90170000D01*
X156229990Y-95230010D02*
X156210000Y-95250000D01*
X165100000Y-93980000D02*
X165100000Y-91440000D01*
X156229990Y-92055010D02*
X156229990Y-95230010D01*
X163830000Y-90170000D02*
X158115000Y-90170000D01*
X158115000Y-90170000D02*
X156229990Y-92055010D01*
X162560000Y-92075000D02*
X162560000Y-93980000D01*
X159385000Y-91440000D02*
X161925000Y-91440000D01*
X149860000Y-114935000D02*
X151130000Y-113665000D01*
X149860000Y-119380000D02*
X149860000Y-114935000D01*
X158750000Y-92075000D02*
X159385000Y-91440000D01*
X158750000Y-99060000D02*
X158750000Y-92075000D01*
X161925000Y-91440000D02*
X162560000Y-92075000D01*
X151130000Y-113665000D02*
X151130000Y-106680000D01*
X151130000Y-106680000D02*
X158750000Y-99060000D01*
X157480000Y-119380000D02*
X157480000Y-115570000D01*
X158769990Y-114280010D02*
X158769990Y-102850010D01*
X157480000Y-115570000D02*
X158769990Y-114280010D01*
X160020000Y-101600000D02*
X160020000Y-93980000D01*
X158769990Y-102850010D02*
X160020000Y-101600000D01*
X119380000Y-127000000D02*
X119380000Y-125095000D01*
X121920000Y-122555000D02*
X121920000Y-119380000D01*
X119380000Y-125095000D02*
X121920000Y-122555000D01*
X124460000Y-133350000D02*
X127000000Y-133350000D01*
X160020000Y-122555000D02*
X160020000Y-119380000D01*
X158115000Y-124460000D02*
X160020000Y-122555000D01*
X132080000Y-127000000D02*
X132080000Y-125095000D01*
X132715000Y-124460000D02*
X158115000Y-124460000D01*
X132080000Y-125095000D02*
X132715000Y-124460000D01*
X130810000Y-129540000D02*
X129540000Y-130810000D01*
X154940000Y-121920000D02*
X153670000Y-123190000D01*
X153670000Y-123190000D02*
X132080000Y-123190000D01*
X130790010Y-124479990D02*
X130790010Y-127917771D01*
X154940000Y-119380000D02*
X154940000Y-121920000D01*
X132080000Y-123190000D02*
X130790010Y-124479990D01*
X129540000Y-130810000D02*
X129540000Y-133350000D01*
X130810000Y-127937761D02*
X130810000Y-129540000D01*
X130790010Y-127917771D02*
X130810000Y-127937761D01*
M02*
